<?xml version="1.0" encoding="UTF-8"?> <!-- Generator: Adobe Illustrator 24.1.1, SVG Export Plug-In . SVG Version: 6.00 Build 0) --> <svg xmlns="http://www.w3.org/2000/svg" xmlns:xlink="http://www.w3.org/1999/xlink" version="1.1" id="Слой_1" x="0px" y="0px" width="1920px" height="1080px" viewBox="0 0 1920 1080" style="enable-background:new 0 0 1920 1080;" xml:space="preserve"> <style type="text/css"> .st0{fill-rule:evenodd;clip-rule:evenodd;fill:#1074EE;} .st1{fill:#FFFFFF;} .st2{opacity:0.5;fill:#0F2241;} .st3{fill:#F8E0C5;} .st4{fill:#0F2241;} .st5{fill:#FFF0DE;} .st6{fill:#E6C6A3;} .st7{fill:#4D59A1;} .st8{fill:#E04D2C;} .st9{fill:#D5584D;} .st10{fill:#E18C44;} .st11{fill:#16315E;} .st12{fill:#10A8B8;} .st13{fill:#3F4A8A;} .st14{fill:#7681BF;} .st15{fill:url(#SVGID_1_);} .st16{fill:url(#SVGID_2_);} .st17{fill:#636EB3;} .st18{fill:#455199;} .st19{fill:#E1D144;} .st20{fill:#0C1F3D;} .st21{fill:#A35B3F;} .st22{fill:#EDA380;} .st23{fill:#E58361;} .st24{fill:#C9704E;} .st25{fill:#FDFCFD;} .st26{fill:#DB8767;} .st27{fill:url(#SVGID_3_);} .st28{fill:url(#SVGID_4_);} </style> <rect x="-37" y="-45" class="st0" width="2031" height="1200"></rect> <ellipse class="st1" cx="928.8" cy="581.9" rx="517.8" ry="298.9"></ellipse> <path class="st2" d="M1396.8,748.6l-349.5,201.8c-12.4,7.2-32.6,7.2-45,0L310.8,551.1c-12.4-7.2-12.4-18.8,0-26l349.5-201.8 c12.4-7.2,32.6-7.2,45,0l691.5,399.2C1409.3,729.8,1409.3,741.4,1396.8,748.6z"></path> <path class="st3" d="M1473.2,651.5l-349.5,201.8c-12.4,7.2-32.6,7.2-45,0L387.2,454.1c-12.4-7.2-12.4-18.8,0-26l349.5-201.8 c12.4-7.2,32.6-7.2,45,0l691.5,399.2C1485.6,632.7,1485.6,644.3,1473.2,651.5z"></path> <polygon class="st4" points="1397.4,602.6 821.4,270 462.9,477 1038.9,809.6 "></polygon> <path class="st1" d="M736.7,226.3l-76.1,44l1.2,0.7c30.6,17.7,46.5,40.7,47.6,63.9L821.4,270l576,332.6L1151,744.8 c1.1,23.2,16.9,46.2,47.6,63.9l1.2,0.7l98.6-56.9l174.7-100.9c12.4-7.2,12.4-18.8,0-26L781.7,226.3 C769.2,219.1,749.1,219.1,736.7,226.3z"></path> <ellipse class="st3" cx="1258.3" cy="729.2" rx="39.6" ry="22.9"></ellipse> <path class="st5" d="M1293.5,737.3c-15.5,8.9-40.5,8.9-56,0c-10.5-6.1-13.9-14.7-10.1-22.5c-12.6,9-11.6,22.2,2.8,30.5 c15.5,8.9,40.5,8.9,56,0c4.9-2.8,8.3-6.3,10.1-9.9C1295.5,736.2,1294.5,736.8,1293.5,737.3z"></path> <path class="st6" d="M1230.3,717c15.5-8.9,40.5-8.9,56,0c6.9,4,10.7,9,11.4,14.2c1-6.5-2.8-13.2-11.4-18.1c-15.5-8.9-40.5-8.9-56,0 c-8.6,5-12.4,11.6-11.4,18.1C1219.6,726,1223.4,721,1230.3,717z"></path> <path class="st1" d="M566.6,370.8c4.6,2.6,4.6,6.9,0,9.5c-4.6,2.6-11.9,2.6-16.5,0c-4.6-2.6-4.6-6.9,0-9.5 C554.6,368.2,562,368.2,566.6,370.8z M595.4,363.7l58.7-33.9c4.5-2.6,4.5-6.8,0-9.4l-0.2-0.1c-4.5-2.6-11.8-2.6-16.3,0l-58.7,33.9 c-4.5,2.6-4.5,6.8,0,9.4l0.2,0.1C583.6,366.3,590.9,366.3,595.4,363.7z"></path> <path class="st6" d="M576.1,360.9c-1.2-2.3-0.3-4.9,2.8-6.7l58.7-33.9c4.5-2.6,11.8-2.6,16.3,0l0.2,0.1c3.1,1.8,4,4.4,2.8,6.7 c-0.5-1-1.4-1.9-2.8-2.7l-0.2-0.1c-4.5-2.6-11.8-2.6-16.3,0l-58.7,33.9C577.5,358.9,576.6,359.9,576.1,360.9z M566.6,370.8 c-4.6-2.6-11.9-2.6-16.5,0c-3.2,1.8-4.1,4.4-2.9,6.7c0.5-1,1.5-2,2.9-2.8c4.6-2.6,11.9-2.6,16.5,0c1.4,0.8,2.3,1.8,2.9,2.8 C570.7,375.2,569.8,372.6,566.6,370.8z"></path> <polygon class="st7" points="860.7,301.4 517.2,499.7 477.9,477 821.4,278.7 "></polygon> <polygon class="st7" points="1382.4,602.6 1038.9,800.9 999.6,778.2 1343.1,579.9 "></polygon> <path class="st4" d="M1473.2,651.5l-349.5,201.8c-12.4,7.2-32.6,7.2-45,0L387.2,454.1c-6.2-3.6-9.3-8.3-9.3-13v51.2 c0,4.7,3.1,9.5,9.3,13.1l691.5,399.2c12.4,7.2,32.6,7.2,45,0l349.5-201.8c6-3.4,9-7.9,9.3-12.4c0,0,0-51.2,0-51.2 C1482.1,643.7,1479.1,648.1,1473.2,651.5z"></path> <g> <path class="st7" d="M1102.3,886.3c-8.7,0-17.5-2.3-25.3-6.8l-699.8-404c-0.6-0.3-0.8-1.1-0.4-1.6c0.3-0.6,1.1-0.8,1.6-0.4 l699.8,404c14.9,8.6,33.3,8.6,48.2,0l355.5-205.3c0.6-0.3,1.3-0.1,1.6,0.4c0.3,0.6,0.1,1.3-0.4,1.6l-355.5,205.3 C1119.8,884,1111,886.3,1102.3,886.3z"></path> </g> <g> <path class="st4" d="M483.7,528.6c4.7,2.7,8.5,9.2,8.5,14.6c0,5.4-3.8,7.6-8.5,4.9c-4.7-2.7-8.5-9.2-8.5-14.6 C475.3,528,479.1,525.9,483.7,528.6z M557.2,571l-43.6-25.2c-4.6-2.7-8.4-0.5-8.4,4.8v0.2c0,5.3,3.7,11.8,8.4,14.5l43.6,25.2 c4.6,2.7,8.4,0.5,8.4-4.8v-0.2C565.6,580.1,561.8,573.6,557.2,571z M630.6,613.3L587,588.2c-4.6-2.7-8.4-0.5-8.4,4.8v0.2 c0,5.3,3.7,11.8,8.4,14.5l43.6,25.2c4.6,2.7,8.4,0.5,8.4-4.8v-0.2C638.9,622.5,635.2,616,630.6,613.3z"></path> <path class="st7" d="M634.3,635.2c-1.4,0-2.8-0.4-4.3-1.3l-43.6-25.2c-5-2.9-9-9.7-9-15.5c0-4.5,2.3-7.4,5.8-7.4 c1.4,0,2.8,0.4,4.3,1.3l43.6,25.2c5,2.9,9,9.7,9,15.5c0,2.3-0.5,4.1-1.5,5.3C637.5,634.5,636,635.2,634.3,635.2z M583.2,588.2 c-2.2,0-3.4,1.8-3.4,4.8c0,5.1,3.5,11.2,7.8,13.7l43.6,25.2c1.1,0.6,2.2,1,3.1,1c1,0,1.8-0.4,2.4-1.1c0.7-0.8,1-2.1,1-3.7 c0-5.1-3.5-11.2-7.8-13.7l-43.6-25.2C585.3,588.5,584.2,588.2,583.2,588.2z M560.9,592.8c-1.4,0-2.8-0.4-4.3-1.3L513,566.3 c-5-2.9-9-9.7-9-15.5c0-4.5,2.3-7.4,5.8-7.4c1.4,0,2.8,0.4,4.3,1.3l43.6,25.2c5,2.9,9,9.7,9,15.5c0,2.3-0.5,4.1-1.5,5.3 C564.2,592.1,562.6,592.8,560.9,592.8z M509.9,545.8c-2.2,0-3.4,1.8-3.4,4.8c0,5.1,3.5,11.2,7.8,13.7l43.6,25.2 c2.3,1.3,4.4,1.3,5.6-0.1c0.7-0.8,1-2.1,1-3.7c0-5.1-3.5-11.2-7.8-13.7L513,546.8C511.9,546.2,510.8,545.8,509.9,545.8z M487.5,550.4c-1.4,0-2.9-0.4-4.4-1.3c-5.1-2.9-9-9.8-9-15.7c0-4.4,2.3-7.2,5.9-7.2c1.4,0,2.9,0.4,4.4,1.3c5.1,2.9,9,9.8,9,15.7 C493.4,547.6,491.1,550.4,487.5,550.4z M480,528.6c-2.2,0-3.5,1.8-3.5,4.8c0,5,3.5,11.1,7.9,13.6c1.1,0.6,2.2,1,3.2,1 c2.2,0,3.5-1.8,3.5-4.8c0-5-3.5-11.1-7.9-13.6C482,528.9,480.9,528.6,480,528.6z"></path> </g> <path class="st7" d="M1176.2,850.1c0,5.3-3.7,11.7-8.2,14.3c-4.6,2.6-8.3,0.5-8.3-4.8c0-5.3,3.7-11.7,8.3-14.3 C1172.6,842.7,1176.2,844.8,1176.2,850.1z M1199.7,830c-3.1,1.8-5.7,6.2-5.7,9.8c0,3.6,2.5,5.1,5.7,3.3c3.1-1.8,5.7-6.2,5.7-9.8 C1205.4,829.6,1202.8,828.1,1199.7,830z M1368.7,732.4c-3.1,1.8-5.7,6.2-5.7,9.8c0,3.6,2.5,5.1,5.7,3.3c3.1-1.8,5.7-6.2,5.7-9.8 C1374.4,732,1371.9,730.5,1368.7,732.4z M1386.4,722.2c-3.1,1.8-5.7,6.2-5.7,9.8c0,3.6,2.5,5.1,5.7,3.3c3.1-1.8,5.7-6.2,5.7-9.8 C1392.1,721.8,1389.5,720.3,1386.4,722.2z M1404.1,712c-3.1,1.8-5.7,6.2-5.7,9.8c0,3.6,2.5,5.1,5.7,3.3c3.1-1.8,5.7-6.2,5.7-9.8 C1409.8,711.6,1407.2,710.1,1404.1,712z M1421.8,701.7c-3.1,1.8-5.7,6.2-5.7,9.8c0,3.6,2.5,5.1,5.7,3.3c3.1-1.8,5.7-6.2,5.7-9.8 C1427.4,701.4,1424.9,699.9,1421.8,701.7z M1439.4,691.5c-3.1,1.8-5.7,6.2-5.7,9.8c0,3.6,2.5,5.1,5.7,3.3c3.1-1.8,5.7-6.2,5.7-9.8 S1442.6,689.7,1439.4,691.5z M1457.1,681.3c-3.1,1.8-5.7,6.2-5.7,9.8c0,3.6,2.5,5.1,5.7,3.3c3.1-1.8,5.7-6.2,5.7-9.8 C1462.8,681,1460.2,679.5,1457.1,681.3z M1268.2,806.5l58.7-33.9c4.5-2.6,8.2-8.9,8.2-14.1v-0.2c0-5.2-3.7-7.3-8.2-4.7l-58.7,33.9 c-4.5,2.6-8.2,8.9-8.2,14.1v0.2C1260,807,1263.7,809.1,1268.2,806.5z"></path> <path class="st8" d="M1335,758.3v0.2c0,5.2-3.7,11.5-8.2,14.1l-58.7,33.9c-3.1,1.8-5.7,1.3-7.1-0.8c1.3,0.2,2.8-0.1,4.5-1l58.7-33.9 c4.5-2.6,8.2-8.9,8.2-14.1v-0.2c0-1.7-0.4-3-1.1-3.9C1333.5,753,1335,755,1335,758.3z M1371.3,731.6c0.3,0.6,0.4,1.3,0.4,2.2 c0,3.6-2.5,8-5.7,9.8c-0.9,0.5-1.8,0.8-2.6,0.7c0.8,1.9,2.9,2.4,5.3,1.1c3.1-1.8,5.7-6.2,5.7-9.8 C1374.4,733.1,1373.2,731.7,1371.3,731.6z M1172.5,844.2c0.7,1,1.1,2.3,1.1,4c0,5.3-3.7,11.7-8.2,14.3c-1.7,1-3.2,1.3-4.5,1 c1.4,2.1,4.1,2.6,7.2,0.8c4.6-2.6,8.3-9,8.3-14.3C1176.2,846.7,1174.8,844.7,1172.5,844.2z M1389,721.4c0.3,0.6,0.4,1.3,0.4,2.2 c0,3.6-2.5,8-5.7,9.8c-0.9,0.5-1.8,0.8-2.6,0.7c0.8,1.9,2.9,2.4,5.3,1.1c3.1-1.8,5.7-6.2,5.7-9.8 C1392.1,722.9,1390.8,721.5,1389,721.4z M1202.3,829.2c0.3,0.6,0.4,1.3,0.4,2.2c0,3.6-2.5,8-5.7,9.8c-0.9,0.5-1.8,0.8-2.6,0.7 c0.8,1.9,2.9,2.4,5.3,1.1c3.1-1.8,5.7-6.2,5.7-9.8C1205.4,830.7,1204.1,829.3,1202.3,829.2z M1459.7,680.6c0.3,0.6,0.4,1.3,0.4,2.2 c0,3.6-2.5,8-5.7,9.8c-0.9,0.5-1.8,0.8-2.6,0.7c0.8,1.9,2.9,2.4,5.3,1.1c3.1-1.8,5.7-6.2,5.7-9.8 C1462.8,682.1,1461.5,680.6,1459.7,680.6z M1442,690.8c0.3,0.6,0.4,1.3,0.4,2.2c0,3.6-2.5,8-5.7,9.8c-0.9,0.5-1.8,0.8-2.6,0.7 c0.8,1.9,2.9,2.4,5.3,1.1c3.1-1.8,5.7-6.2,5.7-9.8C1445.1,692.3,1443.9,690.8,1442,690.8z M1424.4,701c0.3,0.6,0.4,1.3,0.4,2.2 c0,3.6-2.5,8-5.7,9.8c-0.9,0.5-1.8,0.8-2.6,0.7c0.8,1.9,2.9,2.4,5.3,1.1c3.1-1.8,5.7-6.2,5.7-9.8 C1427.4,702.5,1426.2,701,1424.4,701z M1406.7,711.2c0.3,0.6,0.4,1.3,0.4,2.2c0,3.6-2.5,8-5.7,9.8c-0.9,0.5-1.8,0.8-2.6,0.7 c0.8,1.9,2.9,2.4,5.3,1.1c3.1-1.8,5.7-6.2,5.7-9.8C1409.8,712.7,1408.5,711.3,1406.7,711.2z"></path> <g> <path class="st7" d="M991.5,775.6c-0.2,0-0.4-0.1-0.6-0.2l-151-87.2c-0.4-0.2-0.6-0.6-0.6-1s0.2-0.8,0.6-1l167.5-96.7 c0.4-0.2,0.8-0.2,1.2,0l151,87.2c0.4,0.2,0.6,0.6,0.6,1s-0.2,0.8-0.6,1l-167.5,96.7C991.9,775.5,991.7,775.6,991.5,775.6z M842.9,687.2L991.5,773l165.1-95.3L1008,591.9L842.9,687.2z M833,684.1c-0.2,0-0.4-0.1-0.6-0.2l-151-87.2c-0.4-0.2-0.6-0.6-0.6-1 c0-0.4,0.2-0.8,0.6-1L849,498c0.4-0.2,0.8-0.2,1.2,0l151,87.2c0.4,0.2,0.6,0.6,0.6,1s-0.2,0.8-0.6,1l-167.5,96.7 C833.5,684,833.3,684.1,833,684.1z M684.5,595.7L833,681.5l165.1-95.3l-148.6-85.8L684.5,595.7z M675.1,592.9 c-0.2,0-0.4-0.1-0.6-0.2l-151-87.2c-0.4-0.2-0.6-0.6-0.6-1s0.2-0.8,0.6-1L691,406.8c0.4-0.2,0.8-0.2,1.2,0l151,87.2 c0.4,0.2,0.6,0.6,0.6,1s-0.2,0.8-0.6,1l-167.5,96.7C675.5,592.8,675.3,592.9,675.1,592.9z M526.5,504.5l148.6,85.8L840.2,495 l-148.6-85.8L526.5,504.5z"></path> </g> <g> <path class="st7" d="M1168.2,673.6c-0.2,0-0.4-0.1-0.6-0.2l-151-87.2c-0.4-0.2-0.6-0.6-0.6-1c0-0.4,0.2-0.8,0.6-1l167.5-96.7 c0.4-0.2,0.8-0.2,1.2,0l151,87.2c0.4,0.2,0.6,0.6,0.6,1s-0.2,0.8-0.6,1l-167.5,96.7C1168.6,673.5,1168.4,673.6,1168.2,673.6z M1019.6,585.2l148.6,85.8l165.1-95.3l-148.6-85.8L1019.6,585.2z M1009.7,582.1c-0.2,0-0.4-0.1-0.6-0.2l-151-87.2 c-0.4-0.2-0.6-0.6-0.6-1s0.2-0.8,0.6-1l167.5-96.7c0.4-0.2,0.8-0.2,1.2,0l151,87.2c0.4,0.2,0.6,0.6,0.6,1s-0.2,0.8-0.6,1 l-167.5,96.7C1010.1,582,1009.9,582.1,1009.7,582.1z M861.1,493.7l148.6,85.8l165.1-95.3l-148.6-85.8L861.1,493.7z M851.8,490.9 c-0.2,0-0.4-0.1-0.6-0.2l-151-87.2c-0.4-0.2-0.6-0.6-0.6-1s0.2-0.8,0.6-1l167.5-96.7c0.4-0.2,0.8-0.2,1.2,0l151,87.2 c0.4,0.2,0.6,0.6,0.6,1c0,0.4-0.2,0.8-0.6,1l-167.5,96.7C852.2,490.8,852,490.9,851.8,490.9z M703.2,402.5l148.6,85.8l165.1-95.3 l-148.6-85.8L703.2,402.5z"></path> </g> <path class="st7" d="M632,470.1c-28.3,16.4-28.3,42.9,0,59.2c28.3,16.4,74.2,16.4,102.6,0c28.3-16.4,28.3-42.9,0-59.2 S660.4,453.8,632,470.1z M717.5,519.5c-18.9,10.9-49.5,10.9-68.4,0c-18.9-10.9-18.9-28.6,0-39.5c18.9-10.9,49.5-10.9,68.4,0 C736.4,490.9,736.4,508.6,717.5,519.5z"></path> <ellipse class="st7" cx="1180.4" cy="582.7" rx="72.5" ry="41.9"></ellipse> <path class="st7" d="M915.4,488.9l102.6,59.2l102.6-59.2L1018,429.7L915.4,488.9z M1086.4,488.9l-68.4,39.5l-68.4-39.5l68.4-39.5 L1086.4,488.9z"></path> <polygon class="st8" points="518.1,495.4 486.4,477.1 518.1,458.7 "></polygon> <polygon class="st7" points="909.7,571.2 875.5,551.5 841.3,531.7 807.1,551.5 841.3,571.2 807.1,591 841.3,610.7 807.1,630.4 841.3,650.2 875.5,630.4 909.7,610.7 943.9,591 "></polygon> <path class="st7" d="M910,680c2.4,1.4,2.4,3.6,0,4.9c-2.4,1.4-6.2,1.4-8.5,0c-2.4-1.4-2.4-3.6,0-4.9S907.7,678.6,910,680z M911.9,674c-2.4,1.4-2.4,3.6,0,4.9c2.4,1.4,6.2,1.4,8.5,0c2.4-1.4,2.4-3.6,0-4.9C918.1,672.6,914.3,672.6,911.9,674z M922.4,667.9 c-2.4,1.4-2.4,3.6,0,4.9c2.4,1.4,6.2,1.4,8.5,0c2.4-1.4,2.4-3.6,0-4.9S924.7,666.6,922.4,667.9z M932.8,661.9 c-2.4,1.4-2.4,3.6,0,4.9s6.2,1.4,8.5,0s2.4-3.6,0-4.9C939,660.5,935.2,660.5,932.8,661.9z M943.3,655.9c-2.4,1.4-2.4,3.6,0,4.9 c2.4,1.4,6.2,1.4,8.5,0c2.4-1.4,2.4-3.6,0-4.9C949.4,654.5,945.6,654.5,943.3,655.9z M953.7,649.8c-2.4,1.4-2.4,3.6,0,4.9 c2.4,1.4,6.2,1.4,8.5,0c2.4-1.4,2.4-3.6,0-4.9C959.9,648.5,956.1,648.5,953.7,649.8z M964.2,643.8c-2.4,1.4-2.4,3.6,0,4.9 s6.2,1.4,8.5,0s2.4-3.6,0-4.9C970.3,642.4,966.5,642.4,964.2,643.8z M974.6,637.8c-2.4,1.4-2.4,3.6,0,4.9c2.4,1.4,6.2,1.4,8.5,0 c2.4-1.4,2.4-3.6,0-4.9C980.8,636.4,977,636.4,974.6,637.8z M985,631.7c-2.4,1.4-2.4,3.6,0,4.9c2.4,1.4,6.2,1.4,8.5,0 c2.4-1.4,2.4-3.6,0-4.9C991.2,630.4,987.4,630.4,985,631.7z M995.5,625.7c-2.4,1.4-2.4,3.6,0,4.9c2.4,1.4,6.2,1.4,8.5,0 c2.4-1.4,2.4-3.6,0-4.9S997.9,624.3,995.5,625.7z M911.9,686c-2.4,1.4-2.4,3.6,0,4.9s6.2,1.4,8.5,0c2.4-1.4,2.4-3.6,0-4.9 C918.1,684.7,914.3,684.7,911.9,686z M922.4,680c-2.4,1.4-2.4,3.6,0,4.9c2.4,1.4,6.2,1.4,8.5,0c2.4-1.4,2.4-3.6,0-4.9 S924.7,678.6,922.4,680z M932.8,674c-2.4,1.4-2.4,3.6,0,4.9c2.4,1.4,6.2,1.4,8.5,0c2.4-1.4,2.4-3.6,0-4.9 C939,672.6,935.2,672.6,932.8,674z M943.3,667.9c-2.4,1.4-2.4,3.6,0,4.9c2.4,1.4,6.2,1.4,8.5,0c2.4-1.4,2.4-3.6,0-4.9 S945.6,666.6,943.3,667.9z M953.7,661.9c-2.4,1.4-2.4,3.6,0,4.9s6.2,1.4,8.5,0s2.4-3.6,0-4.9C959.9,660.5,956.1,660.5,953.7,661.9z M964.2,655.9c-2.4,1.4-2.4,3.6,0,4.9c2.4,1.4,6.2,1.4,8.5,0c2.4-1.4,2.4-3.6,0-4.9C970.3,654.5,966.5,654.5,964.2,655.9z M974.6,649.8c-2.4,1.4-2.4,3.6,0,4.9c2.4,1.4,6.2,1.4,8.5,0c2.4-1.4,2.4-3.6,0-4.9C980.8,648.5,977,648.5,974.6,649.8z M985,643.8 c-2.4,1.4-2.4,3.6,0,4.9c2.4,1.4,6.2,1.4,8.5,0s2.4-3.6,0-4.9C991.2,642.4,987.4,642.4,985,643.8z M995.5,637.8 c-2.4,1.4-2.4,3.6,0,4.9c2.4,1.4,6.2,1.4,8.5,0c2.4-1.4,2.4-3.6,0-4.9C1001.7,636.4,997.9,636.4,995.5,637.8z M1005.9,631.7 c-2.4,1.4-2.4,3.6,0,4.9c2.4,1.4,6.2,1.4,8.5,0c2.4-1.4,2.4-3.6,0-4.9C1012.1,630.4,1008.3,630.4,1005.9,631.7z M922.4,692 c-2.4,1.4-2.4,3.6,0,4.9c2.4,1.4,6.2,1.4,8.5,0c2.4-1.4,2.4-3.6,0-4.9C928.6,690.7,924.7,690.7,922.4,692z M932.8,686 c-2.4,1.4-2.4,3.6,0,4.9s6.2,1.4,8.5,0s2.4-3.6,0-4.9C939,684.7,935.2,684.7,932.8,686z M943.3,680c-2.4,1.4-2.4,3.6,0,4.9 c2.4,1.4,6.2,1.4,8.5,0c2.4-1.4,2.4-3.6,0-4.9S945.6,678.6,943.3,680z M953.7,674c-2.4,1.4-2.4,3.6,0,4.9c2.4,1.4,6.2,1.4,8.5,0 c2.4-1.4,2.4-3.6,0-4.9C959.9,672.6,956.1,672.6,953.7,674z M964.2,667.9c-2.4,1.4-2.4,3.6,0,4.9c2.4,1.4,6.2,1.4,8.5,0 c2.4-1.4,2.4-3.6,0-4.9S966.5,666.6,964.2,667.9z M974.6,661.9c-2.4,1.4-2.4,3.6,0,4.9s6.2,1.4,8.5,0s2.4-3.6,0-4.9 C980.8,660.5,977,660.5,974.6,661.9z M985,655.9c-2.4,1.4-2.4,3.6,0,4.9c2.4,1.4,6.2,1.4,8.5,0c2.4-1.4,2.4-3.6,0-4.9 C991.2,654.5,987.4,654.5,985,655.9z M995.5,649.8c-2.4,1.4-2.4,3.6,0,4.9c2.4,1.4,6.2,1.4,8.5,0c2.4-1.4,2.4-3.6,0-4.9 C1001.7,648.5,997.9,648.5,995.5,649.8z M1005.9,643.8c-2.4,1.4-2.4,3.6,0,4.9s6.2,1.4,8.5,0s2.4-3.6,0-4.9 C1012.1,642.4,1008.3,642.4,1005.9,643.8z M1016.4,637.8c-2.4,1.4-2.4,3.6,0,4.9c2.4,1.4,6.2,1.4,8.5,0c2.4-1.4,2.4-3.6,0-4.9 C1022.6,636.4,1018.7,636.4,1016.4,637.8z M932.8,698.1c-2.4,1.4-2.4,3.6,0,4.9c2.4,1.4,6.2,1.4,8.5,0c2.4-1.4,2.4-3.6,0-4.9 C939,696.7,935.2,696.7,932.8,698.1z M943.3,692c-2.4,1.4-2.4,3.6,0,4.9c2.4,1.4,6.2,1.4,8.5,0c2.4-1.4,2.4-3.6,0-4.9 C949.4,690.7,945.6,690.7,943.3,692z M953.7,686c-2.4,1.4-2.4,3.6,0,4.9s6.2,1.4,8.5,0s2.4-3.6,0-4.9 C959.9,684.7,956.1,684.7,953.7,686z M964.2,680c-2.4,1.4-2.4,3.6,0,4.9c2.4,1.4,6.2,1.4,8.5,0c2.4-1.4,2.4-3.6,0-4.9 S966.5,678.6,964.2,680z M974.6,674c-2.4,1.4-2.4,3.6,0,4.9c2.4,1.4,6.2,1.4,8.5,0c2.4-1.4,2.4-3.6,0-4.9 C980.8,672.6,977,672.6,974.6,674z M985,667.9c-2.4,1.4-2.4,3.6,0,4.9c2.4,1.4,6.2,1.4,8.5,0c2.4-1.4,2.4-3.6,0-4.9 S987.4,666.6,985,667.9z M995.5,661.9c-2.4,1.4-2.4,3.6,0,4.9c2.4,1.4,6.2,1.4,8.5,0s2.4-3.6,0-4.9 C1001.7,660.5,997.9,660.5,995.5,661.9z M1005.9,655.9c-2.4,1.4-2.4,3.6,0,4.9c2.4,1.4,6.2,1.4,8.5,0c2.4-1.4,2.4-3.6,0-4.9 C1012.1,654.5,1008.3,654.5,1005.9,655.9z M1016.4,649.8c-2.4,1.4-2.4,3.6,0,4.9c2.4,1.4,6.2,1.4,8.5,0c2.4-1.4,2.4-3.6,0-4.9 C1022.6,648.5,1018.7,648.5,1016.4,649.8z M1026.8,643.8c-2.4,1.4-2.4,3.6,0,4.9s6.2,1.4,8.5,0s2.4-3.6,0-4.9 C1033,642.4,1029.2,642.4,1026.8,643.8z M943.3,704.1c-2.4,1.4-2.4,3.6,0,4.9s6.2,1.4,8.5,0s2.4-3.6,0-4.9 C949.4,702.7,945.6,702.7,943.3,704.1z M953.7,698.1c-2.4,1.4-2.4,3.6,0,4.9c2.4,1.4,6.2,1.4,8.5,0c2.4-1.4,2.4-3.6,0-4.9 C959.9,696.7,956.1,696.7,953.7,698.1z M964.2,692c-2.4,1.4-2.4,3.6,0,4.9c2.4,1.4,6.2,1.4,8.5,0c2.4-1.4,2.4-3.6,0-4.9 C970.3,690.7,966.5,690.7,964.2,692z M974.6,686c-2.4,1.4-2.4,3.6,0,4.9s6.2,1.4,8.5,0s2.4-3.6,0-4.9 C980.8,684.7,977,684.7,974.6,686z M985,680c-2.4,1.4-2.4,3.6,0,4.9c2.4,1.4,6.2,1.4,8.5,0c2.4-1.4,2.4-3.6,0-4.9 S987.4,678.6,985,680z M995.5,674c-2.4,1.4-2.4,3.6,0,4.9c2.4,1.4,6.2,1.4,8.5,0c2.4-1.4,2.4-3.6,0-4.9 C1001.7,672.6,997.9,672.6,995.5,674z M1005.9,667.9c-2.4,1.4-2.4,3.6,0,4.9c2.4,1.4,6.2,1.4,8.5,0c2.4-1.4,2.4-3.6,0-4.9 S1008.3,666.6,1005.9,667.9z M1016.4,661.9c-2.4,1.4-2.4,3.6,0,4.9s6.2,1.4,8.5,0c2.4-1.4,2.4-3.6,0-4.9 C1022.6,660.5,1018.7,660.5,1016.4,661.9z M1026.8,655.9c-2.4,1.4-2.4,3.6,0,4.9c2.4,1.4,6.2,1.4,8.5,0c2.4-1.4,2.4-3.6,0-4.9 C1033,654.5,1029.2,654.5,1026.8,655.9z M1037.3,649.8c-2.4,1.4-2.4,3.6,0,4.9c2.4,1.4,6.2,1.4,8.5,0c2.4-1.4,2.4-3.6,0-4.9 C1043.5,648.5,1039.6,648.5,1037.3,649.8z M953.7,710.1c-2.4,1.4-2.4,3.6,0,4.9c2.4,1.4,6.2,1.4,8.5,0c2.4-1.4,2.4-3.6,0-4.9 C959.9,708.8,956.1,708.8,953.7,710.1z M964.2,704.1c-2.4,1.4-2.4,3.6,0,4.9s6.2,1.4,8.5,0s2.4-3.6,0-4.9 C970.3,702.7,966.5,702.7,964.2,704.1z M974.6,698.1c-2.4,1.4-2.4,3.6,0,4.9c2.4,1.4,6.2,1.4,8.5,0c2.4-1.4,2.4-3.6,0-4.9 C980.8,696.7,977,696.7,974.6,698.1z M985,692c-2.4,1.4-2.4,3.6,0,4.9c2.4,1.4,6.2,1.4,8.5,0c2.4-1.4,2.4-3.6,0-4.9 C991.2,690.7,987.4,690.7,985,692z M995.5,686c-2.4,1.4-2.4,3.6,0,4.9c2.4,1.4,6.2,1.4,8.5,0s2.4-3.6,0-4.9 C1001.7,684.7,997.9,684.7,995.5,686z M1005.9,680c-2.4,1.4-2.4,3.6,0,4.9c2.4,1.4,6.2,1.4,8.5,0c2.4-1.4,2.4-3.6,0-4.9 S1008.3,678.6,1005.9,680z M1016.4,674c-2.4,1.4-2.4,3.6,0,4.9c2.4,1.4,6.2,1.4,8.5,0c2.4-1.4,2.4-3.6,0-4.9 C1022.6,672.6,1018.7,672.6,1016.4,674z M1026.8,667.9c-2.4,1.4-2.4,3.6,0,4.9c2.4,1.4,6.2,1.4,8.5,0c2.4-1.4,2.4-3.6,0-4.9 S1029.2,666.6,1026.8,667.9z M1037.3,661.9c-2.4,1.4-2.4,3.6,0,4.9s6.2,1.4,8.5,0s2.4-3.6,0-4.9 C1043.5,660.5,1039.6,660.5,1037.3,661.9z M1047.7,655.9c-2.4,1.4-2.4,3.6,0,4.9c2.4,1.4,6.2,1.4,8.5,0c2.4-1.4,2.4-3.6,0-4.9 C1053.9,654.5,1050.1,654.5,1047.7,655.9z M964.2,716.2c-2.4,1.4-2.4,3.6,0,4.9c2.4,1.4,6.2,1.4,8.5,0c2.4-1.4,2.4-3.6,0-4.9 C970.3,714.8,966.5,714.8,964.2,716.2z M974.6,710.1c-2.4,1.4-2.4,3.6,0,4.9c2.4,1.4,6.2,1.4,8.5,0c2.4-1.4,2.4-3.6,0-4.9 C980.8,708.8,977,708.8,974.6,710.1z M985,704.1c-2.4,1.4-2.4,3.6,0,4.9c2.4,1.4,6.2,1.4,8.5,0s2.4-3.6,0-4.9 C991.2,702.7,987.4,702.7,985,704.1z M995.5,698.1c-2.4,1.4-2.4,3.6,0,4.9c2.4,1.4,6.2,1.4,8.5,0c2.4-1.4,2.4-3.6,0-4.9 C1001.7,696.7,997.9,696.7,995.5,698.1z M1005.9,692c-2.4,1.4-2.4,3.6,0,4.9c2.4,1.4,6.2,1.4,8.5,0c2.4-1.4,2.4-3.6,0-4.9 C1012.1,690.7,1008.3,690.7,1005.9,692z M1016.4,686c-2.4,1.4-2.4,3.6,0,4.9s6.2,1.4,8.5,0c2.4-1.4,2.4-3.6,0-4.9 C1022.6,684.7,1018.7,684.7,1016.4,686z M1026.8,680c-2.4,1.4-2.4,3.6,0,4.9c2.4,1.4,6.2,1.4,8.5,0c2.4-1.4,2.4-3.6,0-4.9 S1029.2,678.6,1026.8,680z M1037.3,674c-2.4,1.4-2.4,3.6,0,4.9c2.4,1.4,6.2,1.4,8.5,0c2.4-1.4,2.4-3.6,0-4.9 C1043.5,672.6,1039.6,672.6,1037.3,674z M1047.7,667.9c-2.4,1.4-2.4,3.6,0,4.9c2.4,1.4,6.2,1.4,8.5,0c2.4-1.4,2.4-3.6,0-4.9 S1050.1,666.6,1047.7,667.9z M1058.2,661.9c-2.4,1.4-2.4,3.6,0,4.9s6.2,1.4,8.5,0s2.4-3.6,0-4.9 C1064.4,660.5,1060.5,660.5,1058.2,661.9z M974.6,722.2c-2.4,1.4-2.4,3.6,0,4.9c2.4,1.4,6.2,1.4,8.5,0c2.4-1.4,2.4-3.6,0-4.9 S977,720.8,974.6,722.2z M985,716.2c-2.4,1.4-2.4,3.6,0,4.9c2.4,1.4,6.2,1.4,8.5,0c2.4-1.4,2.4-3.6,0-4.9 C991.2,714.8,987.4,714.8,985,716.2z M995.5,710.1c-2.4,1.4-2.4,3.6,0,4.9c2.4,1.4,6.2,1.4,8.5,0c2.4-1.4,2.4-3.6,0-4.9 C1001.7,708.8,997.9,708.8,995.5,710.1z M1005.9,704.1c-2.4,1.4-2.4,3.6,0,4.9s6.2,1.4,8.5,0s2.4-3.6,0-4.9 C1012.1,702.7,1008.3,702.7,1005.9,704.1z M1016.4,698.1c-2.4,1.4-2.4,3.6,0,4.9c2.4,1.4,6.2,1.4,8.5,0c2.4-1.4,2.4-3.6,0-4.9 C1022.6,696.7,1018.7,696.7,1016.4,698.1z M1026.8,692c-2.4,1.4-2.4,3.6,0,4.9c2.4,1.4,6.2,1.4,8.5,0c2.4-1.4,2.4-3.6,0-4.9 C1033,690.7,1029.2,690.7,1026.8,692z M1037.3,686c-2.4,1.4-2.4,3.6,0,4.9s6.2,1.4,8.5,0s2.4-3.6,0-4.9 C1043.5,684.7,1039.6,684.7,1037.3,686z M1047.7,680c-2.4,1.4-2.4,3.6,0,4.9c2.4,1.4,6.2,1.4,8.5,0c2.4-1.4,2.4-3.6,0-4.9 S1050.1,678.6,1047.7,680z M1058.2,674c-2.4,1.4-2.4,3.6,0,4.9c2.4,1.4,6.2,1.4,8.5,0c2.4-1.4,2.4-3.6,0-4.9 C1064.4,672.6,1060.5,672.6,1058.2,674z M1068.6,667.9c-2.4,1.4-2.4,3.6,0,4.9c2.4,1.4,6.2,1.4,8.5,0c2.4-1.4,2.4-3.6,0-4.9 S1071,666.6,1068.6,667.9z M985,728.2c-2.4,1.4-2.4,3.6,0,4.9c2.4,1.4,6.2,1.4,8.5,0c2.4-1.4,2.4-3.6,0-4.9 C991.2,726.9,987.4,726.9,985,728.2z M995.5,722.2c-2.4,1.4-2.4,3.6,0,4.9c2.4,1.4,6.2,1.4,8.5,0c2.4-1.4,2.4-3.6,0-4.9 S997.9,720.8,995.5,722.2z M1005.9,716.2c-2.4,1.4-2.4,3.6,0,4.9c2.4,1.4,6.2,1.4,8.5,0c2.4-1.4,2.4-3.6,0-4.9 C1012.1,714.8,1008.3,714.8,1005.9,716.2z M1016.4,710.1c-2.4,1.4-2.4,3.6,0,4.9c2.4,1.4,6.2,1.4,8.5,0c2.4-1.4,2.4-3.6,0-4.9 C1022.6,708.8,1018.7,708.8,1016.4,710.1z M1026.8,704.1c-2.4,1.4-2.4,3.6,0,4.9s6.2,1.4,8.5,0s2.4-3.6,0-4.9 C1033,702.7,1029.2,702.7,1026.8,704.1z M1037.3,698.1c-2.4,1.4-2.4,3.6,0,4.9c2.4,1.4,6.2,1.4,8.5,0c2.4-1.4,2.4-3.6,0-4.9 C1043.5,696.7,1039.6,696.7,1037.3,698.1z M1047.7,692c-2.4,1.4-2.4,3.6,0,4.9c2.4,1.4,6.2,1.4,8.5,0c2.4-1.4,2.4-3.6,0-4.9 C1053.9,690.7,1050.1,690.7,1047.7,692z M1058.2,686c-2.4,1.4-2.4,3.6,0,4.9s6.2,1.4,8.5,0s2.4-3.6,0-4.9 C1064.4,684.7,1060.5,684.7,1058.2,686z M1068.6,680c-2.4,1.4-2.4,3.6,0,4.9c2.4,1.4,6.2,1.4,8.5,0c2.4-1.4,2.4-3.6,0-4.9 S1071,678.6,1068.6,680z M1079.1,674c-2.4,1.4-2.4,3.6,0,4.9c2.4,1.4,6.2,1.4,8.5,0c2.4-1.4,2.4-3.6,0-4.9 C1085.3,672.6,1081.4,672.6,1079.1,674z M995.5,734.3c-2.4,1.4-2.4,3.6,0,4.9c2.4,1.4,6.2,1.4,8.5,0c2.4-1.4,2.4-3.6,0-4.9 C1001.7,732.9,997.9,732.9,995.5,734.3z M1005.9,728.2c-2.4,1.4-2.4,3.6,0,4.9c2.4,1.4,6.2,1.4,8.5,0c2.4-1.4,2.4-3.6,0-4.9 C1012.1,726.9,1008.3,726.9,1005.9,728.2z M1016.4,722.2c-2.4,1.4-2.4,3.6,0,4.9c2.4,1.4,6.2,1.4,8.5,0c2.4-1.4,2.4-3.6,0-4.9 C1022.6,720.8,1018.7,720.8,1016.4,722.2z M1026.8,716.2c-2.4,1.4-2.4,3.6,0,4.9c2.4,1.4,6.2,1.4,8.5,0c2.4-1.4,2.4-3.6,0-4.9 C1033,714.8,1029.2,714.8,1026.8,716.2z M1037.3,710.1c-2.4,1.4-2.4,3.6,0,4.9c2.4,1.4,6.2,1.4,8.5,0c2.4-1.4,2.4-3.6,0-4.9 C1043.5,708.8,1039.6,708.8,1037.3,710.1z M1047.7,704.1c-2.4,1.4-2.4,3.6,0,4.9s6.2,1.4,8.5,0s2.4-3.6,0-4.9 C1053.9,702.7,1050.1,702.7,1047.7,704.1z M1058.2,698.1c-2.4,1.4-2.4,3.6,0,4.9c2.4,1.4,6.2,1.4,8.5,0c2.4-1.4,2.4-3.6,0-4.9 C1064.4,696.7,1060.5,696.7,1058.2,698.1z M1068.6,692c-2.4,1.4-2.4,3.6,0,4.9c2.4,1.4,6.2,1.4,8.5,0c2.4-1.4,2.4-3.6,0-4.9 C1074.8,690.7,1071,690.7,1068.6,692z M1079.1,686c-2.4,1.4-2.4,3.6,0,4.9s6.2,1.4,8.5,0s2.4-3.6,0-4.9 C1085.3,684.7,1081.4,684.7,1079.1,686z M1089.5,680c-2.4,1.4-2.4,3.6,0,4.9c2.4,1.4,6.2,1.4,8.5,0c2.4-1.4,2.4-3.6,0-4.9 S1091.9,678.6,1089.5,680z"></path> <polygon class="st7" points="860.2,338.6 859.9,338.6 845.5,346.9 845.5,389.4 772,389.4 757.6,397.6 757.6,397.8 772,406.1 845.5,406.1 845.5,448.6 859.9,456.9 860.2,456.9 874.5,448.6 874.5,406.1 948.1,406.1 962.4,397.8 962.4,397.6 948.1,389.4 874.5,389.4 874.5,346.9 "></polygon> <path class="st8" d="M1135,846.7l-11.4,6.6c-12.4,7.2-32.6,7.2-45,0l-9.5-5.5v51.3l9.5,5.5c12.4,7.2,32.6,7.2,45,0l11.4-6.6V846.7z"></path> <polygon class="st8" points="1052.5,838.2 1043.9,833.2 1043.9,884.6 1052.5,889.5 "></polygon> <polygon class="st8" points="999.6,859 1008.2,863.9 1008.2,812.6 999.6,807.7 "></polygon> <polygon class="st8" points="445.8,539.4 454.4,544.3 454.4,493 445.8,488.1 "></polygon> <g> <path class="st7" d="M633.7,611.6l-43.6-25.2c-2.1-1.2-4-1.4-5.4-0.8c0,0-0.1,0.1-0.1,0.1c-0.2,0.1-0.4,0.2-0.5,0.3l-2.9,1.5 c1.5-0.8,3.6-0.6,5.8,0.7l43.6,25.2c4.6,2.7,8.4,9.2,8.4,14.5v0.2c0,2.5-0.8,4.2-2.1,5.2l2.5-1.3c1.7-0.8,2.8-2.7,2.8-5.6v-0.2 C642.1,620.8,638.3,614.3,633.7,611.6z M486.9,526.8c-2.2-1.2-4.1-1.4-5.6-0.8c0,0-0.2,0.1-0.2,0.1c-0.1,0-0.1,0.1-0.2,0.1l-3,1.6 c1.5-0.8,3.6-0.7,5.9,0.6c4.7,2.7,8.5,9.2,8.5,14.6c0,2.6-0.9,4.4-2.3,5.3l2.5-1.3c1.8-0.8,3-2.7,3-5.7 C495.4,536.1,491.6,529.5,486.9,526.8z M560.4,569.3l-43.6-25.2c-2.2-1.3-4.2-1.4-5.7-0.7c0,0-0.2,0.1-0.2,0.1 c-0.1,0-3.1,1.7-3.1,1.7c1.5-0.8,3.5-0.6,5.8,0.7l43.6,25.2c4.6,2.7,8.4,9.2,8.4,14.5v0.2c0,2.6-0.9,4.4-2.3,5.3l2.8-1.5 c1.6-0.9,2.6-2.8,2.6-5.6v-0.2C568.7,578.4,565,571.9,560.4,569.3z"></path> <path class="st7" d="M636.8,634.4c-0.4,0-0.8-0.2-1-0.6c-0.3-0.5-0.2-1.2,0.3-1.6c1.1-0.8,1.6-2.3,1.6-4.2c0-5.1-3.5-11.2-7.8-13.7 l-43.6-25.2c-1.8-1-3.5-1.2-4.6-0.6c-0.4,0.2-0.9,0.2-1.2-0.1c-0.3-0.2-0.5-0.6-0.5-1.1c0-0.4,0.3-0.8,0.6-1l2.9-1.5 c0.1-0.1,0.4-0.2,0.6-0.3c0,0,0.1,0,0.1-0.1c1.9-0.8,4.1-0.4,6.4,0.9l43.6,25.2c5,2.9,9,9.7,9,15.5c0,3.3-1.2,5.7-3.3,6.7 c0,0-0.1,0.1-0.1,0.1l-2.5,1.3C637.2,634.3,637,634.4,636.8,634.4z M586.3,586.5c0.4,0.2,0.8,0.4,1.3,0.6l43.6,25.2 c5,2.9,9,9.7,9,15.5c0,0.7-0.1,1.4-0.2,2c0.6-0.8,1-2.1,1-3.6c0-5.1-3.5-11.2-7.8-13.7l-43.6-25.2 C588.4,586.8,587.2,586.4,586.3,586.5z M563.3,592.2c-0.4,0-0.8-0.2-1-0.6c-0.3-0.6-0.1-1.3,0.4-1.6c1.1-0.7,1.8-2.3,1.8-4.3 c0-5.1-3.5-11.2-7.8-13.7L513,546.8c-1.8-1-3.5-1.3-4.6-0.6c-0.5,0.3-1.1,0.3-1.5,0.1c-0.4-0.2-0.6-0.6-0.5-1.1 c0-0.4,0.3-0.8,0.6-1c0,0,0.1,0,0.1-0.1c0,0,0.1-0.1,0.1-0.1l3-1.6c0.1-0.1,0.2-0.1,0.3-0.1c1.9-1,4.3-0.7,6.8,0.7l43.6,25.2 c5,2.9,9,9.7,9,15.5c0,3.2-1.1,5.5-3,6.6c-0.1,0.1-0.2,0.1-0.3,0.2l-2.8,1.5C563.6,592.1,563.4,592.2,563.3,592.2z M513,544.1 c0.4,0.2,0.8,0.4,1.2,0.6l43.6,25.2c5,2.9,9,9.7,9,15.5c0,0.7-0.1,1.4-0.2,2.1c0.6-0.8,1-2,1-3.6c0-5.1-3.5-11.2-7.8-13.7 l-43.6-25.2C515,544.5,513.9,544.1,513,544.1z M489.2,550.1c-0.3,0-0.6-0.1-0.8-0.3c-0.1-0.1-0.2-0.2-0.3-0.3 c-0.3-0.6-0.1-1.3,0.5-1.6c0.2-0.1,0.3-0.1,0.4-0.2c0.1-0.1,0.1-0.1,0.2-0.2c1.1-0.7,1.7-2.3,1.7-4.3c0-5-3.5-11.1-7.9-13.6 c-1.8-1-3.5-1.3-4.7-0.6c-0.7,0.4-1.3,0.3-1.7-0.2c-0.2-0.3-0.3-0.6-0.2-1c0.1-0.3,0.3-0.6,0.6-0.8c0.2-0.1,3.1-1.7,3.1-1.7 c0.1-0.1,0.3-0.1,0.5-0.2c1.9-0.9,4.3-0.6,6.7,0.7c5.1,2.9,9,9.8,9,15.7c0,3.3-1.3,5.7-3.5,6.7c0,0-2.5,1.4-2.5,1.4 c-0.1,0.1-0.2,0.1-0.4,0.1c-0.1,0.1-0.2,0.2-0.3,0.2C489.6,550,489.4,550.1,489.2,550.1z M483.1,526.9c0.4,0.2,0.8,0.4,1.3,0.6 c5.1,2.9,9,9.8,9,15.7c0,0.7-0.1,1.3-0.2,1.9c0.6-0.8,0.9-2.1,0.9-3.6c0-5-3.5-11.1-7.9-13.6C485.2,527.2,484,526.9,483.1,526.9z"></path> </g> <path class="st2" d="M690.3,253l60.7,35.1l68.8-39.7l-38.2-22.1c-12.4-7.2-32.6-7.2-45,0L690.3,253z"></path> <g> <path class="st1" d="M506,432.6c-0.6,0.1-0.9,0.4-1,0.6c-0.7,1.9,2.4,2.2,2.3,0.4C507.3,433.1,507,432.5,506,432.6z"></path> <path class="st1" d="M506,492.3c-0.6,0.1-0.9,0.4-1,0.6c-0.7,1.9,2.4,2.2,2.3,0.4C507.3,492.8,507,492.2,506,492.3z"></path> <path class="st1" d="M506,420.7c-0.6,0.1-0.9,0.4-1,0.6c-0.7,1.9,2.4,2.2,2.3,0.4C507.3,421.1,507,420.6,506,420.7z"></path> <path class="st1" d="M506,456.5c-0.6,0.1-0.9,0.4-1,0.6c-0.7,1.9,2.4,2.2,2.3,0.4C507.3,456.9,507,456.4,506,456.5z"></path> <path class="st1" d="M506,468.4c-0.6,0.1-0.9,0.4-1,0.6c-0.7,1.9,2.4,2.2,2.3,0.4C507.3,468.9,507,468.3,506,468.4z"></path> <path class="st1" d="M506,480.4c-0.6,0.1-0.9,0.4-1,0.6c-0.7,1.9,2.4,2.2,2.3,0.4C507.3,480.8,507,480.3,506,480.4z"></path> <path class="st1" d="M506,408.7c-0.6,0.1-0.9,0.4-1,0.6c-0.7,1.9,2.4,2.2,2.3,0.4C507.3,409.2,507,408.6,506,408.7z"></path> <path class="st1" d="M506,444.6c-0.6,0.1-0.9,0.4-1,0.6c-0.7,1.9,2.4,2.2,2.3,0.4C507.3,445,507,444.5,506,444.6z"></path> <path class="st1" d="M499.9,474.2c-0.7,0.1-1.1,0.6-1.1,1.3c0,1.9,2.9,1.7,2.8-0.1C501.5,474.6,501,474,499.9,474.2z"></path> <path class="st1" d="M499.9,486.2c-0.7,0.1-1.1,0.6-1.1,1.3c0,1.9,2.9,1.7,2.8-0.1C501.5,486.6,501,486,499.9,486.2z"></path> <path class="st1" d="M506,396.8c-0.6,0.1-0.9,0.4-1,0.6c-0.7,1.9,2.4,2.2,2.3,0.4C507.3,397.2,507,396.7,506,396.8z"></path> <path class="st1" d="M499.9,498.1c-0.7,0.1-1.1,0.6-1.1,1.3c0,1.9,2.9,1.7,2.8-0.1C501.5,498.5,501,497.9,499.9,498.1z"></path> <path class="st1" d="M506,384.9c-0.6,0.1-0.9,0.4-1,0.6c-0.7,1.9,2.4,2.2,2.3,0.4C507.3,385.3,507,384.7,506,384.9z"></path> <path class="st1" d="M506,372.9c-0.6,0.1-0.9,0.4-1,0.6c-0.7,1.9,2.4,2.2,2.3,0.4C507.3,373.4,507,372.8,506,372.9z"></path> <path class="st1" d="M506,361c-0.6,0.1-0.9,0.4-1,0.6c-0.7,1.9,2.4,2.2,2.3,0.4C507.3,361.4,507,360.9,506,361z"></path> <path class="st1" d="M499.9,510.1c-0.7,0.1-1.1,0.6-1.1,1.3c0,1.9,2.9,1.7,2.8-0.1C501.5,510.5,501,509.8,499.9,510.1z"></path> <path class="st1" d="M513,475.1c-0.1-0.5-0.7-0.7-1.3-0.5c-0.5,0.2-0.5,0.5-0.5,0.6C510.9,477,513.5,476.7,513,475.1z"></path> <path class="st1" d="M505,516.9c-0.7,1.9,2.4,2.2,2.3,0.4c0-0.6-0.3-1.1-1.3-1C505.4,516.3,505.1,516.6,505,516.9z"></path> <path class="st1" d="M513,451.3c-0.1-0.5-0.7-0.7-1.3-0.5c-0.5,0.2-0.5,0.5-0.5,0.6C510.9,453.1,513.5,452.8,513,451.3z"></path> <path class="st1" d="M513,463.2c-0.1-0.5-0.7-0.7-1.3-0.5c-0.5,0.2-0.5,0.5-0.5,0.6C510.9,465.1,513.5,464.7,513,463.2z"></path> <path class="st1" d="M511.7,522.5c-0.5,0.2-0.5,0.5-0.5,0.6c-0.2,1.7,2.3,1.3,1.8-0.2C512.9,522.4,512.3,522.2,511.7,522.5z"></path> <path class="st1" d="M513,487.1c-0.1-0.5-0.7-0.7-1.3-0.5c-0.5,0.2-0.5,0.5-0.5,0.6C510.9,489,513.5,488.6,513,487.1z"></path> <path class="st1" d="M513,499c-0.1-0.5-0.7-0.7-1.3-0.5c-0.5,0.2-0.5,0.5-0.5,0.6C510.9,500.9,513.5,500.5,513,499z"></path> <path class="st1" d="M513,439.3c-0.1-0.5-0.7-0.7-1.3-0.5c-0.5,0.2-0.5,0.5-0.5,0.6C510.9,441.2,513.5,440.8,513,439.3z"></path> <path class="st1" d="M513,367.7c-0.1-0.5-0.7-0.7-1.3-0.5c-0.5,0.2-0.5,0.5-0.5,0.6C510.9,369.5,513.5,369.2,513,367.7z"></path> <path class="st1" d="M513,379.6c-0.1-0.5-0.7-0.7-1.3-0.5c-0.5,0.2-0.5,0.5-0.5,0.6C510.9,381.5,513.5,381.1,513,379.6z"></path> <path class="st1" d="M513,427.4c-0.1-0.5-0.7-0.7-1.3-0.5c-0.5,0.2-0.5,0.5-0.5,0.6C510.9,429.2,513.5,428.9,513,427.4z"></path> <path class="st1" d="M506,504.3c-0.6,0.1-0.9,0.4-1,0.6c-0.7,1.9,2.4,2.2,2.3,0.4C507.3,504.7,507,504.2,506,504.3z"></path> <path class="st1" d="M513,415.4c-0.1-0.5-0.7-0.7-1.3-0.5c-0.5,0.2-0.5,0.5-0.5,0.6C510.9,417.3,513.5,416.9,513,415.4z"></path> <path class="st1" d="M513,403.5c-0.1-0.5-0.7-0.7-1.3-0.5c-0.5,0.2-0.5,0.5-0.5,0.6C510.9,405.4,513.5,405,513,403.5z"></path> <path class="st1" d="M513,391.6c-0.1-0.5-0.7-0.7-1.3-0.5c-0.5,0.2-0.5,0.5-0.5,0.6C510.9,393.4,513.5,393.1,513,391.6z"></path> <path class="st1" d="M487.7,485.8c-2,0.5-1.1,3.1,0,3.4C490.6,489.9,490.8,485,487.7,485.8z"></path> <path class="st1" d="M487.7,473.9c-2,0.5-1.1,3.1,0,3.4C490.6,477.9,490.8,473,487.7,473.9z"></path> <path class="st1" d="M493.7,372.5c-1.2,0.3-1.5,1.9-0.6,2.7C495.5,377.4,497.1,371.7,493.7,372.5z"></path> <path class="st1" d="M487.7,497.7c-2,0.5-1.1,3.1,0,3.4C490.6,501.8,490.8,496.9,487.7,497.7z"></path> <path class="st1" d="M513,511c-0.1-0.5-0.7-0.7-1.3-0.5c-0.5,0.2-0.5,0.5-0.5,0.6C510.9,512.8,513.5,512.5,513,511z"></path> <path class="st1" d="M493.7,408.4c-1.2,0.3-1.5,1.9-0.6,2.7C495.5,413.2,497.1,407.5,493.7,408.4z"></path> <path class="st1" d="M493.7,396.4c-1.2,0.3-1.5,1.9-0.6,2.7C495.5,401.3,497.1,395.5,493.7,396.4z"></path> <path class="st1" d="M493.7,384.5c-1.2,0.3-1.5,1.9-0.6,2.7C495.5,389.3,497.1,383.6,493.7,384.5z"></path> <path class="st1" d="M487.7,438c-2,0.5-1.1,3.1,0,3.4C490.6,442.1,490.8,437.2,487.7,438z"></path> <path class="st1" d="M487.7,405.6c2.9,0.7,3.1-4.2,0-3.4C485.7,402.7,486.6,405.4,487.7,405.6z"></path> <path class="st1" d="M487.7,390.3c-2,0.5-1.1,3.1,0,3.4C490.6,394.4,490.8,389.4,487.7,390.3z"></path> <path class="st1" d="M487.7,414.2c-2,0.5-1.1,3.1,0,3.4C490.6,418.2,490.8,413.3,487.7,414.2z"></path> <path class="st1" d="M493.7,420.3c-1.2,0.3-1.5,1.9-0.6,2.7C495.5,425.1,497.1,419.4,493.7,420.3z"></path> <path class="st1" d="M487.7,426.1c-2,0.5-1.1,3.1,0,3.4C490.6,430.2,490.8,425.3,487.7,426.1z"></path> <path class="st1" d="M487.7,450c-2,0.5-1.1,3.1,0,3.4C490.6,454.1,490.8,449.1,487.7,450z"></path> <path class="st1" d="M487.7,461.9c-2,0.5-1.1,3.1,0,3.4C490.6,466,490.8,461.1,487.7,461.9z"></path> <path class="st1" d="M499.9,438.4c-0.7,0.1-1.1,0.6-1.1,1.3c0,1.9,2.9,1.7,2.8-0.1C501.5,438.8,501,438.2,499.9,438.4z"></path> <path class="st1" d="M499.9,414.5c-0.7,0.1-1.1,0.5-1.1,1.3c0,1.9,2.9,1.7,2.8-0.1C501.5,414.9,501,414.3,499.9,414.5z"></path> <path class="st1" d="M499.9,402.6c-0.7,0.1-1.1,0.5-1.1,1.3c0,1.9,2.9,1.7,2.8-0.1C501.5,403,501,402.4,499.9,402.6z"></path> <path class="st1" d="M499.9,390.6c-0.7,0.1-1.1,0.6-1.1,1.3c0,1.9,2.9,1.7,2.8-0.1C501.5,391,501,390.4,499.9,390.6z"></path> <path class="st1" d="M499.9,450.3c-0.7,0.2-1.1,0.6-1.1,1.3c0,1.9,2.9,1.7,2.8-0.1C501.5,450.7,501,450.1,499.9,450.3z"></path> <path class="st1" d="M499.9,426.5c-0.7,0.1-1.1,0.6-1.1,1.3c0,1.9,2.9,1.7,2.8-0.1C501.5,426.9,501,426.2,499.9,426.5z"></path> <path class="st1" d="M499.9,378.7c-0.7,0.1-1.1,0.6-1.1,1.3c0,1.9,2.9,1.7,2.8-0.1C501.5,379.1,501,378.5,499.9,378.7z"></path> <path class="st1" d="M499.9,462.3c-0.7,0.1-1.1,0.6-1.1,1.3c0,1.9,2.9,1.7,2.8-0.1C501.5,462.7,501,462.1,499.9,462.3z"></path> <path class="st1" d="M487.7,381.7c2.9,0.7,3.1-4.2,0-3.4C485.7,378.9,486.6,381.5,487.7,381.7z"></path> <path class="st1" d="M493.7,456.1c-1.2,0.3-1.5,1.9-0.6,2.7C495.5,461,497.1,455.2,493.7,456.1z"></path> <path class="st1" d="M493.7,432.3c-1.2,0.3-1.5,1.9-0.6,2.7C495.5,437.1,497.1,431.4,493.7,432.3z"></path> <path class="st1" d="M493.7,444.2c-1.2,0.3-1.5,1.9-0.6,2.7C495.5,449,497.1,443.3,493.7,444.2z"></path> <path class="st1" d="M499.9,366.8c-0.7,0.1-1.1,0.6-1.1,1.3c0,1.9,2.9,1.7,2.8-0.1C501.5,367.2,501,366.5,499.9,366.8z"></path> <path class="st1" d="M493.7,492c-1.2,0.3-1.5,1.9-0.6,2.7C495.5,496.8,497.1,491.1,493.7,492z"></path> <path class="st1" d="M493.7,503.9c-1.2,0.3-1.5,1.9-0.6,2.7C495.5,508.7,497.1,503,493.7,503.9z"></path> <path class="st1" d="M493.7,480c-1.2,0.3-1.5,1.9-0.6,2.7C495.5,484.9,497.1,479.1,493.7,480z"></path> <path class="st1" d="M493.7,468.1c-1.2,0.3-1.5,1.9-0.6,2.7C495.5,472.9,497.1,467.2,493.7,468.1z"></path> <path class="st1" d="M530.3,493.2c-0.1-0.1-0.4-0.2-0.5,0C529.4,493.7,530.5,494,530.3,493.2z"></path> <path class="st1" d="M530.3,373.8c-0.1-0.1-0.4-0.2-0.5,0C529.4,374.3,530.5,374.6,530.3,373.8z"></path> <path class="st1" d="M530.3,481.3c-0.1-0.1-0.4-0.2-0.5,0C529.4,481.8,530.5,482,530.3,481.3z"></path> <path class="st1" d="M530.3,517.1c-0.1-0.1-0.4-0.2-0.5,0C529.4,517.6,530.5,517.9,530.3,517.1z"></path> <path class="st1" d="M529.8,529.1c-0.5,0.4,0.7,0.7,0.5,0C530.2,529,529.8,528.9,529.8,529.1z"></path> <path class="st1" d="M535.8,343.9c-0.1,0.1-0.2,0.6,0.2,0.6C535.9,344.3,536.1,343.8,535.8,343.9z"></path> <path class="st1" d="M530.3,469.4c-0.1-0.1-0.4-0.2-0.5,0C529.4,469.8,530.5,470.1,530.3,469.4z"></path> <path class="st1" d="M530.3,421.6c-0.1-0.1-0.4-0.2-0.5,0C529.4,422,530.5,422.3,530.3,421.6z"></path> <path class="st1" d="M530.3,397.7c-0.1-0.1-0.4-0.2-0.5,0C529.4,398.2,530.5,398.5,530.3,397.7z"></path> <path class="st1" d="M530.3,385.8c-0.1-0.1-0.4-0.2-0.5,0C529.4,386.2,530.5,386.5,530.3,385.8z"></path> <path class="st1" d="M530.3,409.7c-0.1-0.1-0.4-0.2-0.5,0C529.4,410.1,530.5,410.4,530.3,409.7z"></path> <path class="st1" d="M535.8,355.8c-0.1,0.1-0.2,0.6,0.2,0.6C535.9,356.2,536.1,355.7,535.8,355.8z"></path> <path class="st1" d="M530.3,445.5c-0.1-0.1-0.4-0.2-0.5,0C529.4,445.9,530.5,446.2,530.3,445.5z"></path> <path class="st1" d="M530.3,457.4c-0.1-0.1-0.4-0.2-0.5,0C529.4,457.9,530.5,458.2,530.3,457.4z"></path> <path class="st1" d="M530.3,433.5c-0.1-0.1-0.4-0.2-0.5,0C529.4,434,530.5,434.3,530.3,433.5z"></path> <path class="st1" d="M530.3,505.2c-0.1-0.1-0.4-0.2-0.5,0C529.4,505.6,530.5,505.9,530.3,505.2z"></path> <path class="st1" d="M535.8,463.3c-0.1,0.1-0.2,0.6,0.2,0.6C535.9,463.7,536.1,463.2,535.8,463.3z"></path> <path class="st1" d="M535.8,487.2c-0.1,0.1-0.2,0.6,0.2,0.6C535.9,487.5,536.1,487.1,535.8,487.2z"></path> <path class="st1" d="M535.8,367.8c-0.1,0.1-0.2,0.6,0.2,0.6C535.9,368.1,536.1,367.7,535.8,367.8z"></path> <path class="st1" d="M535.8,499.1c-0.1,0.1-0.2,0.6,0.2,0.5C535.9,499.5,536.1,499,535.8,499.1z"></path> <path class="st1" d="M535.8,534.9c-0.1,0.1-0.2,0.6,0.2,0.6C535.9,535.3,536.1,534.9,535.8,534.9z"></path> <path class="st1" d="M535.8,511.1c-0.1,0.1-0.2,0.6,0.2,0.5C535.9,511.4,536.1,511,535.8,511.1z"></path> <path class="st1" d="M535.8,523c-0.1,0.1-0.2,0.6,0.2,0.6C535.9,523.4,536.1,522.9,535.8,523z"></path> <path class="st1" d="M535.8,475.2c-0.1,0.1-0.2,0.6,0.2,0.6C535.9,475.6,536.1,475.2,535.8,475.2z"></path> <path class="st1" d="M535.8,391.7c-0.1,0.1-0.2,0.6,0.2,0.6C535.9,392,536.1,391.6,535.8,391.7z"></path> <path class="st1" d="M535.8,379.7c-0.1,0.1-0.2,0.6,0.2,0.6C535.9,380.1,536.1,379.6,535.8,379.7z"></path> <path class="st1" d="M535.8,451.4c-0.1,0.1-0.2,0.6,0.2,0.5C535.9,451.7,536.1,451.3,535.8,451.4z"></path> <path class="st1" d="M535.8,403.6c-0.1,0.1-0.2,0.6,0.2,0.6C535.9,404,536.1,403.5,535.8,403.6z"></path> <path class="st1" d="M535.8,439.4c-0.1,0.1-0.2,0.6,0.2,0.6C535.9,439.8,536.1,439.3,535.8,439.4z"></path> <path class="st1" d="M535.8,415.5c-0.1,0.1-0.2,0.6,0.2,0.6C535.9,415.9,536.1,415.4,535.8,415.5z"></path> <path class="st1" d="M535.8,427.5c-0.1,0.1-0.2,0.6,0.2,0.6C535.9,427.8,536.1,427.4,535.8,427.5z"></path> <path class="st1" d="M518.3,409.1c-0.1,0-0.3,0-0.6,0.1c-0.4,0.2-0.7,0.2-0.5,0.9C517.8,411.6,519.7,409.5,518.3,409.1z"></path> <path class="st1" d="M518.3,468.8c-0.1,0-0.3,0-0.6,0.1c-0.4,0.2-0.7,0.2-0.5,0.9C517.8,471.4,519.7,469.2,518.3,468.8z"></path> <path class="st1" d="M518.3,480.8c-0.1,0-0.3,0-0.6,0.1c-0.4,0.2-0.7,0.2-0.5,0.9C517.8,483.3,519.7,481.1,518.3,480.8z"></path> <path class="st1" d="M518.3,456.9c-0.1,0-0.3,0-0.6,0.1c-0.4,0.2-0.7,0.2-0.5,0.9C517.8,459.4,519.7,457.2,518.3,456.9z"></path> <path class="st1" d="M518.3,492.7c-0.1,0-0.3,0-0.6,0.1c-0.4,0.2-0.7,0.2-0.5,0.9C517.8,495.2,519.7,493,518.3,492.7z"></path> <path class="st1" d="M518.3,444.9c-0.1,0-0.3,0-0.6,0.1c-0.4,0.2-0.7,0.2-0.5,0.9C517.8,447.5,519.7,445.3,518.3,444.9z"></path> <path class="st1" d="M523.5,356.2c0.1,0.2,0.3,0.3,0.5,0.5c0.4-0.1,0.6-0.3,0.6-0.6C524.4,355.4,523.5,355.5,523.5,356.2z"></path> <path class="st1" d="M517.8,516.7c-0.4,0.2-0.7,0.2-0.5,0.9c0.5,1.5,2.3-0.7,1-1C518.2,516.5,518,516.6,517.8,516.7z"></path> <path class="st1" d="M518.3,504.6c-0.1,0-0.3,0-0.6,0.1c-0.4,0.2-0.7,0.2-0.5,0.9C517.8,507.2,519.7,505,518.3,504.6z"></path> <path class="st1" d="M518.3,385.2c-0.1,0-0.3,0-0.6,0.1c-0.4,0.2-0.7,0.2-0.5,0.9C517.8,387.8,519.7,385.6,518.3,385.2z"></path> <path class="st1" d="M518.3,373.3c-0.1,0-0.3,0-0.6,0.1c-0.4,0.2-0.7,0.2-0.5,0.9C517.8,375.8,519.7,373.6,518.3,373.3z"></path> <path class="st1" d="M530.3,361.9c-0.1-0.1-0.4-0.2-0.5,0C529.4,362.3,530.5,362.6,530.3,361.9z"></path> <path class="st1" d="M518.3,361.3c-0.1,0-0.3,0-0.6,0.1c-0.4,0.2-0.7,0.2-0.5,0.9C517.8,363.9,519.7,361.7,518.3,361.3z"></path> <path class="st1" d="M518.3,421c-0.1,0-0.3,0-0.6,0.1c-0.4,0.2-0.7,0.2-0.5,0.9C517.8,423.6,519.7,421.4,518.3,421z"></path> <path class="st1" d="M513,355.7c0-0.1-0.1-0.2-0.1-0.2l-1.7,1C511.5,357.5,513.4,357.1,513,355.7z"></path> <path class="st1" d="M518.3,397.2c-0.1,0-0.3,0-0.6,0.1c-0.4,0.2-0.7,0.2-0.5,0.9C517.8,399.7,519.7,397.5,518.3,397.2z"></path> <path class="st1" d="M518.3,433c-0.1,0-0.3,0-0.6,0.1c-0.4,0.2-0.7,0.2-0.5,0.9C517.8,435.5,519.7,433.3,518.3,433z"></path> <path class="st1" d="M523.5,487.5c0.1,0.2,0.3,0.3,0.5,0.5c0.4-0.1,0.6-0.3,0.6-0.6C524.4,486.8,523.5,486.8,523.5,487.5z"></path> <path class="st1" d="M523.5,368.1c0.1,0.2,0.3,0.3,0.5,0.5c0.4-0.1,0.6-0.3,0.6-0.6C524.4,367.4,523.5,367.4,523.5,368.1z"></path> <path class="st1" d="M523.5,499.5c0.1,0.2,0.3,0.3,0.5,0.5c0.4-0.1,0.6-0.3,0.6-0.6C524.4,498.7,523.5,498.8,523.5,499.5z"></path> <path class="st1" d="M523.5,523.4c0.1,0.2,0.3,0.3,0.5,0.5c0.4-0.1,0.6-0.3,0.6-0.6C524.4,522.6,523.5,522.7,523.5,523.4z"></path> <path class="st1" d="M523.5,463.7c0.1,0.2,0.3,0.3,0.5,0.5c0.4-0.1,0.6-0.3,0.6-0.6C524.4,462.9,523.5,463,523.5,463.7z"></path> <path class="st1" d="M530.3,350c-0.1-0.1-0.4-0.2-0.5,0C529.4,350.4,530.5,350.7,530.3,350z"></path> <path class="st1" d="M523.5,511.4c0.1,0.2,0.3,0.3,0.5,0.5c0.4-0.1,0.6-0.3,0.6-0.6C524.4,510.7,523.5,510.7,523.5,511.4z"></path> <path class="st1" d="M523.5,475.6c0.1,0.2,0.3,0.3,0.5,0.5c0.4-0.1,0.6-0.3,0.6-0.6C524.4,474.8,523.5,474.9,523.5,475.6z"></path> <path class="st1" d="M523.5,451.7c0.1,0.2,0.3,0.3,0.5,0.5c0.4-0.1,0.6-0.3,0.6-0.6C524.4,451,523.5,451,523.5,451.7z"></path> <path class="st1" d="M523.5,380.1c0.1,0.2,0.3,0.3,0.5,0.5c0.4-0.1,0.6-0.3,0.6-0.6C524.4,379.3,523.5,379.4,523.5,380.1z"></path> <path class="st1" d="M523.5,404c0.1,0.2,0.3,0.3,0.5,0.5c0.4-0.1,0.6-0.3,0.6-0.6C524.4,403.2,523.5,403.2,523.5,404z"></path> <path class="st1" d="M523.5,392c0.1,0.2,0.3,0.3,0.5,0.5c0.4-0.1,0.6-0.3,0.6-0.6C524.4,391.3,523.5,391.3,523.5,392z"></path> <path class="st1" d="M523.5,415.9c0.1,0.2,0.3,0.3,0.5,0.5c0.4-0.1,0.6-0.3,0.6-0.6C524.4,415.1,523.5,415.2,523.5,415.9z"></path> <path class="st1" d="M523.5,439.8c0.1,0.2,0.3,0.3,0.5,0.5c0.4-0.1,0.6-0.3,0.6-0.6C524.4,439,523.5,439.1,523.5,439.8z"></path> <path class="st1" d="M523.5,427.8c0.1,0.2,0.3,0.3,0.5,0.5c0.4-0.1,0.6-0.3,0.6-0.6C524.4,427.1,523.5,427.1,523.5,427.8z"></path> <path class="st1" d="M385.3,445.6c-0.1,2.3,4,1.4,2.5-0.7c-0.2-0.2-0.7-0.5-1.2-0.5C385.8,444.5,385.4,444.9,385.3,445.6z"></path> <path class="st1" d="M427.5,442.4c4.8,1.5,5.2-6.5,0.4-5.5C424.9,437.5,425.2,441.8,427.5,442.4z"></path> <path class="st1" d="M427.5,466.3c4.8,1.5,5.2-6.5,0.4-5.5C424.9,461.4,425.2,465.6,427.5,466.3z"></path> <path class="st1" d="M427.5,418.6c4.8,1.5,5.2-6.5,0.4-5.5C424.9,413.7,425.2,417.9,427.5,418.6z"></path> <path class="st1" d="M427.9,425c-3,0.6-2.6,4.8-0.4,5.5C432.3,432,432.7,424,427.9,425z"></path> <path class="st1" d="M451.8,400.9c-4.3,0.7-2.3,7.4,1.7,5.8C456.7,405.5,455.5,400.3,451.8,400.9z"></path> <path class="st1" d="M427.5,454.4c4.8,1.5,5.2-6.5,0.4-5.5C424.9,449.5,425.2,453.7,427.5,454.4z"></path> <path class="st1" d="M437.4,399.1l-3.2,1.8C435.6,401,436.9,400.5,437.4,399.1z"></path> <path class="st1" d="M425.2,410.2c0.1-1.4-0.7-2.7-2-2.9l-3.2,1.9c0,0.1-0.1,0.2-0.1,0.3C419.5,413.3,424.9,413.4,425.2,410.2z"></path> <path class="st1" d="M422,443.1c-1.3,0.2-2,1.1-2.1,2.2c-0.4,3.8,5,3.9,5.3,0.7C425.4,444.2,424,442.7,422,443.1z"></path> <path class="st1" d="M422,431.2c-1.3,0.2-2,1.1-2.1,2.2c-0.4,3.8,5,3.9,5.3,0.7C425.4,432.3,424,430.8,422,431.2z"></path> <path class="st1" d="M422,419.2c-1.3,0.2-2,1.1-2.1,2.2c-0.4,3.8,5,3.9,5.3,0.7C425.4,420.4,424,418.8,422,419.2z"></path> <path class="st1" d="M451.8,412.9c-4.3,0.7-2.3,7.4,1.7,5.8C456.7,417.5,455.5,412.2,451.8,412.9z"></path> <path class="st1" d="M422,467c-1.3,0.2-2,1.1-2.1,2.2c-0.4,3.8,5,3.9,5.3,0.7C425.4,468.1,424,466.6,422,467z"></path> <path class="st1" d="M427.5,406.6c3,0.9,4.3-2,3.6-3.9l-4.9,2.8C426.5,406.1,426.9,406.5,427.5,406.6z"></path> <path class="st1" d="M422,455c-1.3,0.2-2,1.1-2.1,2.2c-0.4,3.8,5,3.9,5.3,0.7C425.4,456.2,424,454.6,422,455z"></path> <path class="st1" d="M453.6,490.3c3.1-1.2,2-6.4-1.7-5.8C447.5,485.2,449.5,491.9,453.6,490.3z"></path> <path class="st1" d="M437.6,445.6c0-1.9-1.7-3.1-3.4-2.9c-1.9,0.2-2.9,1.4-2.8,3.1C431.4,449.5,437.7,449.9,437.6,445.6z"></path> <path class="st1" d="M437.6,457.5c0-1.9-1.7-3.1-3.4-2.9c-1.9,0.2-2.9,1.4-2.8,3.1C431.4,461.4,437.7,461.9,437.6,457.5z"></path> <path class="st1" d="M437.6,433.6c0-1.9-1.7-3.1-3.4-2.9c-1.9,0.2-2.9,1.4-2.8,3.1C431.4,437.5,437.7,438,437.6,433.6z"></path> <path class="st1" d="M437.6,469.5c0-1.9-1.7-3.1-3.4-2.9c-1.9,0.2-2.9,1.4-2.8,3.1C431.4,473.4,437.7,473.8,437.6,469.5z"></path> <path class="st1" d="M437.3,405c0.9,2.9,5.5,2.5,6.2,0c0.9-2.9-1.5-4.7-3.9-4.2C437.9,401.1,436.7,403,437.3,405z"></path> <path class="st1" d="M434.2,406.8c-1.9,0.2-2.9,1.4-2.8,3.1c0.1,3.7,6.3,4.2,6.2-0.2C437.6,407.9,435.9,406.7,434.2,406.8z"></path> <path class="st1" d="M437.6,421.7c0-1.9-1.7-3.1-3.4-2.9c-1.9,0.2-2.9,1.4-2.8,3.1C431.4,425.6,437.7,426,437.6,421.7z"></path> <path class="st1" d="M447.1,484.7c1.7-0.3,2.8-2.2,2.6-3.9c-0.3-1.7-2.1-2.8-3.9-2.5c-1.3,0.2-2.4,1.2-2.6,2.5 C442.8,483.2,444.8,485.1,447.1,484.7z"></path> <path class="st1" d="M451.8,448.7c-4.3,0.7-2.3,7.4,1.7,5.8C456.7,453.3,455.5,448.1,451.8,448.7z"></path> <path class="st1" d="M451.8,460.6c-4.3,0.7-2.3,7.4,1.7,5.8C456.7,465.2,455.5,460,451.8,460.6z"></path> <path class="st1" d="M451.8,436.8c-4.3,0.7-2.3,7.4,1.7,5.8C456.7,441.3,455.5,436.1,451.8,436.8z"></path> <path class="st1" d="M451.8,472.6c-4.3,0.7-2.3,7.4,1.7,5.8C456.7,477.2,455.5,472,451.8,472.6z"></path> <path class="st1" d="M451.8,424.8c-4.3,0.7-2.3,7.4,1.7,5.8C456.7,429.4,455.5,424.2,451.8,424.8z"></path> <path class="st1" d="M443.6,476.6c0.9-2.9-1.5-4.7-3.9-4.2c-1.8,0.4-3,2.2-2.4,4.2C438.2,479.5,442.8,479.1,443.6,476.6z"></path> <path class="st1" d="M416.2,449.2c-3,0.4-2.6,4.9,0.4,4.9C419.8,454.1,419.8,448.7,416.2,449.2z"></path> <path class="st1" d="M489.8,368.8l-1.7,1C488.9,369.8,489.5,369.4,489.8,368.8z"></path> <path class="st1" d="M406.6,463.2c-0.1-1-0.9-1.9-2.5-1.6c-0.9,0.2-1.3,0.7-1.5,1.4l3.4,2C406.5,464.6,406.8,464,406.6,463.2z"></path> <path class="st1" d="M416.2,461.2c-3,0.4-2.6,4.9,0.4,4.9C419.8,466.1,419.8,460.7,416.2,461.2z"></path> <path class="st1" d="M410.3,467.4l2.2,1.3C412.2,467.9,411.4,467.3,410.3,467.4z"></path> <path class="st1" d="M387.8,432.9c-0.2-0.2-0.7-0.5-1.2-0.5c-0.9,0.1-1.3,0.5-1.3,1.2C385.2,436,389.4,435,387.8,432.9z"></path> <path class="st1" d="M427.9,472.8c-1.9,0.4-2.4,2.2-2,3.6l3.4,2C432.3,477.6,432,471.9,427.9,472.8z"></path> <path class="st1" d="M449.6,397.3c-0.3-1.7-2.1-2.8-3.9-2.5c-1.3,0.2-2.4,1.2-2.6,2.5c-0.4,2.4,1.6,4.2,3.9,3.9 C448.8,400.8,449.9,398.9,449.6,397.3z"></path> <path class="st1" d="M392.2,426.3c-1.2,0.3-1.5,1.9-0.6,2.7C394,431.1,395.6,425.4,392.2,426.3z"></path> <path class="st1" d="M437.6,481.4c0-1.9-1.7-3.1-3.4-2.9c-1.2,0.1-1.9,0.6-2.4,1.4l5.4,3.1C437.5,482.6,437.6,482,437.6,481.4z"></path> <path class="st1" d="M494.1,515.8l1.5,0.9C495.5,516.1,495,515.7,494.1,515.8z"></path> <path class="st1" d="M518.3,528.5c-0.1,0-0.3,0-0.6,0.1c-0.3,0.1-0.5,0.2-0.5,0.6l1.1,0.6C518.8,529.4,519.1,528.7,518.3,528.5z"></path> <path class="st1" d="M487.7,509.7c-1,0.3-1.2,1-1.2,1.7l2.5,1.5C490.5,512,490.2,509,487.7,509.7z"></path> <path class="st1" d="M464.1,496.8c-0.7,0.1-1.2,0.4-1.5,0.7l4.3,2.5C467.1,498.5,466.1,496.6,464.1,496.8z"></path> <path class="st1" d="M392.2,438.2c-1.2,0.3-1.5,1.9-0.6,2.7C394,443.1,395.6,437.3,392.2,438.2z"></path> <path class="st1" d="M439.7,484.3c-0.1,0,4,2.3,4,2.3C443.3,484.9,441.5,484,439.7,484.3z"></path> <path class="st1" d="M458,490.7c-1.7,0.2-2.5,1.6-2.4,2.9l4.1,2.4C462,494.7,461.5,490.2,458,490.7z"></path> <path class="st1" d="M381.6,438.9c-0.2-0.2-0.6-0.4-1.2-0.2c-0.7,0.2-0.7,0.6-0.7,0.8C379.4,441.9,383.2,440.5,381.6,438.9z"></path> <path class="st1" d="M410,443.6c-2.7,0.6-1.8,4.9,1.1,4.3C413.8,447.4,413,442.9,410,443.6z"></path> <path class="st1" d="M410,455.5c-2.7,0.6-1.8,4.9,1.1,4.3C413.8,459.3,413,454.8,410,455.5z"></path> <path class="st1" d="M410,419.7c-2.7,0.6-1.8,4.9,1.1,4.3C413.8,423.5,413,419,410,419.7z"></path> <path class="st1" d="M410,431.6c-2.7,0.6-1.8,4.9,1.1,4.3C413.8,435.4,413,431,410,431.6z"></path> <path class="st1" d="M416.2,437.3c-3,0.4-2.6,4.9,0.4,4.9C419.8,442.2,419.8,436.8,416.2,437.3z"></path> <path class="st1" d="M416.2,425.4c-3,0.4-2.6,4.9,0.4,4.9C419.8,430.2,419.8,424.9,416.2,425.4z"></path> <path class="st1" d="M398.1,423.5c2.1,0.5,2.7-1.8,1.9-2.9l-2.9,1.7C397.3,422.9,397.7,423.4,398.1,423.5z"></path> <path class="st1" d="M416.2,413.4c-3,0.4-2.6,4.9,0.4,4.9C419.8,418.3,419.8,412.9,416.2,413.4z"></path> <path class="st1" d="M398.1,444c-2,0.5-1.1,3.1,0,3.4C401.1,448.1,401.2,443.2,398.1,444z"></path> <path class="st1" d="M398.1,456c-2,0.5-1.1,3.1,0,3.4C401.1,460,401.2,455.1,398.1,456z"></path> <path class="st1" d="M398.1,432.1c-2,0.5-1.1,3.1,0,3.4C401.1,436.2,401.2,431.2,398.1,432.1z"></path> <path class="st1" d="M406.2,417.1l-1.1,0.6C405.5,417.6,405.9,417.4,406.2,417.1z"></path> <path class="st1" d="M404.2,449.7c-1,0.2-1.5,0.9-1.6,1.7c-0.4,3.3,4.5,2.8,4-0.1C406.5,450.2,405.7,449.4,404.2,449.7z"></path> <path class="st1" d="M404.2,437.8c-1,0.2-1.5,0.9-1.6,1.7c-0.4,3.3,4.5,2.8,4-0.1C406.5,438.3,405.7,437.4,404.2,437.8z"></path> <path class="st1" d="M404.2,425.8c-1,0.2-1.5,0.9-1.6,1.7c-0.4,3.3,4.5,2.8,4-0.1C406.5,426.4,405.7,425.5,404.2,425.8z"></path> <path class="st1" d="M392.2,450.2c-1.2,0.3-1.5,1.9-0.6,2.7C394,455,395.6,449.3,392.2,450.2z"></path> <path class="st1" d="M475.4,394c3.6,1.2,4.2-5,0.4-4.2C473.3,390.3,473.9,393.5,475.4,394z"></path> <path class="st1" d="M475.8,413.7c-2.5,0.5-1.9,3.7-0.4,4.2C479,419.1,479.6,412.9,475.8,413.7z"></path> <path class="st1" d="M475.4,382.1c3.6,1.2,4.2-5,0.4-4.2C473.3,378.4,473.9,381.6,475.4,382.1z"></path> <path class="st1" d="M475.8,437.6c-2.5,0.5-1.9,3.7-0.4,4.2C479,443,479.6,436.8,475.8,437.6z"></path> <path class="st1" d="M475.8,449.5c-2.5,0.5-1.9,3.7-0.4,4.2C479,454.9,479.6,448.8,475.8,449.5z"></path> <path class="st1" d="M475.4,406c3.6,1.2,4.2-5,0.4-4.2C473.3,402.2,473.9,405.5,475.4,406z"></path> <path class="st1" d="M475.8,425.6c-2.5,0.5-1.9,3.7-0.4,4.2C479,431,479.6,424.9,475.8,425.6z"></path> <path class="st1" d="M469.4,483.8c4,1.3,4.5-5.6,0.3-4.6C467,479.8,467.7,483.2,469.4,483.8z"></path> <path class="st1" d="M475.8,461.5c-2.5,0.5-1.9,3.7-0.4,4.2C479,466.9,479.6,460.7,475.8,461.5z"></path> <path class="st1" d="M469.7,419.5c-2.7,0.6-1.9,4-0.3,4.6C473.4,425.4,473.9,418.5,469.7,419.5z"></path> <path class="st1" d="M469.7,443.4c-2.7,0.6-1.9,4-0.3,4.6C473.4,449.3,473.9,442.4,469.7,443.4z"></path> <path class="st1" d="M469.7,431.4c-2.7,0.6-1.9,4-0.3,4.6C473.4,437.3,473.9,430.5,469.7,431.4z"></path> <path class="st1" d="M469.4,471.8c4,1.3,4.5-5.6,0.3-4.6C467,467.9,467.7,471.3,469.4,471.8z"></path> <path class="st1" d="M469.7,455.3c-2.7,0.6-1.9,4-0.3,4.6C473.4,461.2,473.9,454.3,469.7,455.3z"></path> <path class="st1" d="M469.4,495.7c4,1.3,4.5-5.6,0.3-4.6C467,491.7,467.7,495.2,469.4,495.7z"></path> <path class="st1" d="M482.3,507.4c2.6-0.1,2.5-4.5-0.5-4C479.4,503.9,480,507.5,482.3,507.4z"></path> <path class="st1" d="M481.9,455.7c-2.4,0.4-1.8,4,0.5,4C485,459.5,484.8,455.2,481.9,455.7z"></path> <path class="st1" d="M481.9,431.8c-2.4,0.4-1.8,4,0.5,3.9C485,435.7,484.8,431.3,481.9,431.8z"></path> <path class="st1" d="M481.9,443.7c-2.4,0.4-1.8,4,0.5,3.9C485,447.6,484.8,443.2,481.9,443.7z"></path> <path class="st1" d="M481.9,467.6c-2.4,0.4-1.8,4,0.5,4C485,471.5,484.8,467.1,481.9,467.6z"></path> <path class="st1" d="M469.7,407.5c-2.7,0.6-1.9,4-0.3,4.6C473.4,413.4,473.9,406.6,469.7,407.5z"></path> <path class="st1" d="M481.9,491.5c-2.4,0.4-1.8,4,0.5,3.9C485,495.4,484.8,491,481.9,491.5z"></path> <path class="st1" d="M449.6,409.2c-0.3-1.7-2.1-2.8-3.9-2.5c-1.3,0.2-2.4,1.2-2.6,2.5c-0.4,2.4,1.6,4.2,3.9,3.9 C448.8,412.8,449.9,410.9,449.6,409.2z"></path> <path class="st1" d="M482.3,423.8c2.6-0.1,2.5-4.5-0.5-4C479.4,420.3,480,423.9,482.3,423.8z"></path> <path class="st1" d="M482.3,411.9c2.6-0.1,2.5-4.5-0.5-4C479.4,408.3,480,411.9,482.3,411.9z"></path> <path class="st1" d="M475.8,485.3c-2.5,0.5-1.9,3.7-0.4,4.2C479,490.7,479.6,484.6,475.8,485.3z"></path> <path class="st1" d="M475.8,497.3c-2.5,0.5-1.9,3.7-0.4,4.2C479,502.7,479.6,496.5,475.8,497.3z"></path> <path class="st1" d="M482.3,376c2-0.1,2.4-2.6,1.2-3.6l-3.2,1.8C480.5,375.2,481.2,376.1,482.3,376z"></path> <path class="st1" d="M481.9,384c-2.4,0.4-1.8,4,0.5,3.9C485,387.9,484.8,383.5,481.9,384z"></path> <path class="st1" d="M481.9,396c-2.4,0.4-1.8,4,0.5,3.9C485,399.8,484.8,395.5,481.9,396z"></path> <path class="st1" d="M475.8,473.4c-2.5,0.5-1.9,3.7-0.4,4.2C479,478.8,479.6,472.7,475.8,473.4z"></path> <path class="st1" d="M481.9,479.6c-2.4,0.4-1.8,4,0.5,4C485,483.4,484.8,479,481.9,479.6z"></path> <path class="st1" d="M437.3,428.9c0.9,2.9,5.5,2.5,6.2,0c0.9-2.9-1.5-4.7-3.9-4.2C437.9,425,436.7,426.9,437.3,428.9z"></path> <path class="st1" d="M453.6,394.8c2.3-0.9,2.3-4.1,0.5-5.3l-4.6,2.7C449.7,393.9,451.3,395.7,453.6,394.8z"></path> <path class="st1" d="M443.6,416.9c0.9-2.9-1.5-4.7-3.9-4.2c-1.8,0.4-3,2.2-2.4,4.2C438.2,419.8,442.8,419.4,443.6,416.9z"></path> <path class="st1" d="M458,431c-3.4,0.4-3.1,5.6,0.4,5.6C462.1,436.6,462.1,430.4,458,431z"></path> <path class="st1" d="M469.7,395.6c-2.7,0.6-1.9,4-0.3,4.6C473.4,401.5,473.9,394.6,469.7,395.6z"></path> <path class="st1" d="M458,419c-3.4,0.4-3.1,5.6,0.4,5.6C462.1,424.6,462.1,418.5,458,419z"></path> <path class="st1" d="M458,407.1c-3.4,0.4-3.1,5.6,0.4,5.6C462.1,412.7,462.1,406.6,458,407.1z"></path> <path class="st1" d="M437.3,440.8c0.9,2.9,5.5,2.5,6.2,0c0.9-2.9-1.5-4.7-3.9-4.2C437.9,436.9,436.7,438.8,437.3,440.8z"></path> <path class="st1" d="M449.6,433.1c-0.3-1.7-2.1-2.8-3.9-2.5c-1.3,0.2-2.4,1.2-2.6,2.5c-0.4,2.4,1.6,4.2,3.9,3.9 C448.8,436.7,449.9,434.8,449.6,433.1z"></path> <path class="st1" d="M449.6,421.1c-0.3-1.7-2.1-2.8-3.9-2.5c-1.3,0.2-2.4,1.2-2.6,2.5c-0.4,2.4,1.6,4.2,3.9,3.9 C448.8,424.7,449.9,422.8,449.6,421.1z"></path> <path class="st1" d="M449.6,445c-0.3-1.7-2.1-2.8-3.9-2.5c-1.3,0.2-2.4,1.2-2.6,2.5c-0.4,2.4,1.6,4.2,3.9,3.9 C448.8,448.6,449.9,446.7,449.6,445z"></path> <path class="st1" d="M447.1,472.8c1.7-0.3,2.8-2.2,2.6-3.9c-0.3-1.7-2.1-2.8-3.9-2.5c-1.3,0.2-2.4,1.2-2.6,2.5 C442.8,471.3,444.8,473.1,447.1,472.8z"></path> <path class="st1" d="M437.3,464.7c0.9,2.9,5.5,2.5,6.2,0c0.9-2.9-1.5-4.7-3.9-4.2C437.9,460.8,436.7,462.7,437.3,464.7z"></path> <path class="st1" d="M449.6,457c-0.3-1.7-2.1-2.8-3.9-2.5c-1.3,0.2-2.4,1.2-2.6,2.5c-0.4,2.4,1.6,4.2,3.9,3.9 C448.8,460.5,449.9,458.6,449.6,457z"></path> <path class="st1" d="M437.3,452.7c0.9,2.9,5.5,2.5,6.2,0c0.9-2.9-1.5-4.7-3.9-4.2C437.9,448.9,436.7,450.8,437.3,452.7z"></path> <path class="st1" d="M458,395.1c-3.4,0.4-3.1,5.6,0.4,5.6C462.1,400.7,462.1,394.6,458,395.1z"></path> <path class="st1" d="M464.4,490.1c3.5-0.1,3.1-5.6-0.4-5.2C460.7,485.3,461.2,490.2,464.4,490.1z"></path> <path class="st1" d="M464.1,425.2c-3.4,0.4-2.9,5.3,0.4,5.2C468,430.3,467.5,424.8,464.1,425.2z"></path> <path class="st1" d="M464.4,478.2c3.5-0.1,3.1-5.6-0.4-5.2C460.7,473.3,461.2,478.3,464.4,478.2z"></path> <path class="st1" d="M464.1,437.1c-3.4,0.4-2.9,5.3,0.4,5.2C468,442.3,467.5,436.7,464.1,437.1z"></path> <path class="st1" d="M469.7,383.7c-2.7,0.6-1.9,4-0.3,4.6C473.4,389.6,473.9,382.7,469.7,383.7z"></path> <path class="st1" d="M464.4,454.3c3.5-0.1,3.1-5.6-0.4-5.2C460.7,449.4,461.2,454.4,464.4,454.3z"></path> <path class="st1" d="M464.4,466.2c3.5-0.1,3.1-5.6-0.4-5.2C460.7,461.4,461.2,466.3,464.4,466.2z"></path> <path class="st1" d="M458,466.8c-3.4,0.4-3.1,5.6,0.4,5.6C462.1,472.4,462.1,466.3,458,466.8z"></path> <path class="st1" d="M458,442.9c-3.4,0.4-3.1,5.6,0.4,5.6C462.1,448.5,462.1,442.4,458,442.9z"></path> <path class="st1" d="M464.1,413.2c-3.4,0.4-2.9,5.3,0.4,5.2C468,418.4,467.5,412.9,464.1,413.2z"></path> <path class="st1" d="M458,454.8c-3.4,0.4-3.1,5.6,0.4,5.6C462.1,460.5,462.1,454.3,458,454.8z"></path> <path class="st1" d="M458,478.7c-3.4,0.4-3.1,5.6,0.4,5.6C462.1,484.3,462.1,478.2,458,478.7z"></path> <path class="st1" d="M464.1,401.3c-3.4,0.4-2.9,5.3,0.4,5.2C468,406.4,467.5,400.9,464.1,401.3z"></path> <path class="st1" d="M461.1,385.4l-4.6,2.7c0.5,0.4,1.1,0.7,1.9,0.7C460.4,388.8,461.3,387,461.1,385.4z"></path> <path class="st1" d="M464.1,389.4c-3.4,0.4-2.9,5.3,0.4,5.2C468,394.5,467.5,389,464.1,389.4z"></path> </g> <polygon class="st2" points="1529.1,443.1 1610,396.4 1529.1,349.7 1448.1,396.4 1509.2,439.9 "></polygon> <g> <path class="st4" d="M1019.9,350.3l0,46.9l0.4-0.2c22.1-12.8,40-2.4,40,23.1l0,93.6l40.9-23.6l4.1-184.3L1019.9,350.3z"></path> <polygon class="st4" points="1142.1,513.7 1101.2,537.3 1060.3,513.7 1101.2,490.1 "></polygon> <path class="st9" d="M1060.6,373.9l0,46.9l0.4-0.2c22.1-12.8,40-2.4,40,23.1l0,93.6l40.9-23.6l0-186.7L1060.6,373.9z"></path> <polygon class="st1" points="1141.9,327 1101.2,303.4 1019.9,350.3 1060.6,373.9 "></polygon> <polygon class="st10" points="1060.6,420.9 1019.9,397.3 1019.9,350.3 1060.6,373.9 "></polygon> </g> <polygon class="st3" points="898.8,467.3 818,514 737.1,467.3 818,420.7 "></polygon> <polygon class="st11" points="898.8,467.3 818,420.7 818,327.3 898.8,374 "></polygon> <polygon class="st7" points="1060.6,560.7 898.9,654 898.8,467.3 1060.6,374 "></polygon> <polygon class="st1" points="1060.5,374 898.8,467.3 818,420.7 898.8,374 825.1,331.4 832.1,327.3 825.1,323.2 898.8,280.6 "></polygon> <polygon class="st3" points="818,420.7 825,424.7 818,420.7 "></polygon> <g> <polygon class="st2" points="737.1,467.3 768.7,485.5 831.9,449.1 800.4,430.8 "></polygon> <polygon class="st11" points="751,467.3 670.2,420.7 670.2,327.3 751,374 "></polygon> <polygon class="st7" points="690.4,409 690.4,362.3 730.8,385.6 730.8,432.3 "></polygon> <polygon class="st1" points="832.1,327.3 751.3,374 670.4,327.3 751.3,280.6 "></polygon> <polygon class="st12" points="730.8,385.8 690.5,409.1 730.8,432.3 "></polygon> <polygon class="st12" points="831.9,327.3 831.9,412.6 818,420.7 818,428.7 751.1,467.3 751.1,374 "></polygon> </g> <polygon class="st11" points="966.7,549.4 1007.6,525.8 1007.6,478.6 966.7,502.2 "></polygon> <polygon class="st12" points="966.7,549.4 1007.3,526 966.7,502.6 "></polygon> <polygon class="st11" points="898.8,467.3 818,420.7 818,514 737.1,467.3 737.1,560.7 898.8,654 "></polygon> <g> <path class="st13" d="M353.5,674.2c-17.2-9.9-45.2-9.9-62.4,0c-17.2,9.9-17.2,26.1,0,36L275.5,728l-15.6,0.3 c-34.4-19.9-34.4-52.1,0-72c34.4-19.9,90.3-19.9,124.7,0L369,673.9L353.5,674.2L353.5,674.2z"></path> <path class="st1" d="M369,637.9c-17.2-9.9-45.2-9.9-62.4,0c-17.2,9.9-17.2,26.1,0,36c0,0-31.2,18-31.2,18 c-34.4-19.9-34.4-52.1,0-72c34.4-19.9,90.3-19.9,124.7,0L369,637.9L369,637.9z"></path> <polygon class="st14" points="306.7,673.9 306.7,710 275.5,728 275.5,692 "></polygon> <polygon class="st14" points="400.2,619.9 400.2,655.9 369,673.9 369,637.9 "></polygon> <linearGradient id="SVGID_1_" gradientUnits="userSpaceOnUse" x1="265.8198" y1="651.4433" x2="409.1356" y2="653.3976"> <stop offset="5.376340e-03" style="stop-color:#636EB3"></stop> <stop offset="1" style="stop-color:#16315E"></stop> </linearGradient> <path class="st15" d="M306.7,637.9c17.2-9.9,45.2-9.9,62.4,0v36c-17.2-9.9-45.2-9.9-62.4,0C289.5,664,289.5,647.9,306.7,637.9z"></path> <path class="st7" d="M275.5,692v36c-16.6-9.6-25.2-22.1-25.8-34.7c-0.1,0-0.1-37.4-0.1-37.4C249.6,669,258.3,682,275.5,692z"></path> <path class="st10" d="M249.7,654.5c0,0.5-0.1,0.9-0.1,1.4L249.7,654.5L249.7,654.5z"></path> </g> <g> <path class="st13" d="M496.2,811.7l-1.1,10.2l21.7,3.4l20.3-5.5l-12.4-3.7c6.8,0.2,13.7-0.1,20.4-1l10.6,8.3l20.3-5.5l-4.2-10 c2.7-1.2,5.3-2.5,7.8-3.9c2.5-1.4,4.7-2.9,6.7-4.5l17.3,2.4l20.3-5.5l-10.8-6.2l-14.3-6.1c1.6-3.9,2.2-7.8,1.8-11.8l15.9-4.6 l-5.8-12.5l-17.7,0.6c-3-3.5-7-6.7-11.8-9.7l7.1-9.4l-18.4-7.4l-12.9,7.1c-6.4-1.6-13-2.6-19.8-3.1l-5-9.8l-22.4,1.1l-2,10.2 c-6.5,1.1-12.8,2.8-18.6,5l-14.8-5.7l-15.9,9.2l9.8,8.5c-3.8,3.4-6.7,7-8.7,10.7l-17.6,1.1l-2,12.9l17.1,2.9 c0.8,3.9,2.6,7.8,5.3,11.4l-12.2,7.4l12.9,10.6l16.3-4.1C484.5,807.6,490.2,809.9,496.2,811.7z M502.1,789.9 c-14.7-8.5-14.7-22.2,0-30.7c14.7-8.5,38.4-8.5,53.1,0s14.7,22.2,0,30.7C540.6,798.3,516.8,798.3,502.1,789.9z"></path> <path class="st1" d="M516.5,770.1l-1.1,10.2l21.7,3.4l7.9-9.2c6.8,0.2,13.7-0.1,20.4-1l10.6,8.3l20.3-5.5l-4.2-10 c2.7-1.2,5.3-2.5,7.8-3.9c2.5-1.4,4.7-2.9,6.7-4.5l17.3,2.4l9.5-11.7l-14.3-6.1c1.6-3.9,2.2-7.8,1.8-11.8l15.9-4.6l-5.8-12.5 l-17.7,0.6c-3-3.5-7-6.7-11.8-9.7l7.1-9.4l-18.4-7.4l-12.9,7.1c-6.4-1.6-13-2.6-19.8-3.1l-5-9.9l-22.4,1.1l-2,10.2 c-6.5,1.1-12.8,2.8-18.6,5l-14.8-5.7l-15.9,9.2l9.8,8.5c-3.8,3.4-6.7,7-8.7,10.7l-17.6,1.1l-2,12.9l17.1,2.9 c0.8,3.9,2.6,7.8,5.3,11.4l-12.2,7.4l12.9,10.6l16.3-4.1C504.8,766.1,510.5,768.4,516.5,770.1z M522.4,748.4 c-14.7-8.5-14.7-22.2,0-30.7c14.7-8.5,38.4-8.5,53.1,0c14.7,8.5,14.7,22.2,0,30.7C560.8,756.8,537.1,756.8,522.4,748.4z"></path> <linearGradient id="SVGID_2_" gradientUnits="userSpaceOnUse" x1="483.5596" y1="730.4326" x2="626.1296" y2="732.3768"> <stop offset="5.376340e-03" style="stop-color:#636EB3"></stop> <stop offset="1" style="stop-color:#16315E"></stop> </linearGradient> <path class="st16" d="M575.5,717.7c-14.7-8.5-38.4-8.5-53.1,0c-14.7,8.5-14.7,22.2,0,30.7c1.8,1,3.7,1.9,5.6,2.7 c12.6-4.9,29.2-4.9,41.8,0c2-0.8,3.9-1.7,5.6-2.7C590.2,739.9,590.2,726.2,575.5,717.7z"></path> <path class="st17" d="M601.5,704.6c2.6,1.6,5,3.3,7.1,5.1v-14.5L601.5,704.6z"></path> <path class="st17" d="M480,721c2-3.7,4.8-7.4,8.7-10.7l-9.8-8.5v19.4L480,721z"></path> <polygon class="st7" points="470.5,756.8 470.5,792.8 483.4,803.5 483.4,767.5 "></polygon> <polygon class="st7" points="515.3,780.4 515.3,816.4 537,819.7 537,783.7 "></polygon> <polygon class="st14" points="575.9,781.8 575.9,817.8 596.3,812.3 596.3,776.3 "></polygon> <polygon class="st14" points="623.9,760.4 623.9,796.4 633.4,784.6 633.4,748.6 "></polygon> <path class="st18" d="M470.5,772.8v-16l12.2-7.4c-2.7-3.7-4.5-7.5-5.3-11.4l-17.1-2.9V771C460.4,771.1,470.5,772.8,470.5,772.8z"></path> <path class="st18" d="M499.7,763.3l-16.3,4.1v36l16.3-4.1c4.8,2.6,10.1,4.7,15.7,6.4v-25.4l1.1-10.2 C510.5,768.4,504.8,766.1,499.7,763.3z"></path> <path class="st17" d="M623.9,760.4l-17.3-2.4c-2,1.6-4.3,3.1-6.7,4.5c-2.5,1.4-5.1,2.7-7.8,3.9l4.2,10v24.1 c1.2-0.6,2.4-1.3,3.6-1.9c2.5-1.4,4.7-2.9,6.7-4.5l17.3,2.4V760.4z"></path> <path class="st17" d="M620.9,730.7c0.4,4-0.2,7.9-1.8,11.8l14.3,6.1v14.5l3.2-0.9h0.2v-36.1L620.9,730.7z"></path> <path class="st18" d="M565.4,773.5c-6.7,0.9-13.6,1.2-20.4,1l-7.9,9.2v36l7.9-9.2c6.8,0.2,13.7-0.1,20.4-1l10.6,8.3v-36 L565.4,773.5z"></path> </g> <g> <polygon class="st1" points="979.7,327.3 898.8,280.6 979.7,233.8 1060.7,280.6 "></polygon> <polygon class="st7" points="979.7,420.8 979.7,327.3 1060.7,280.6 1060.7,374 "></polygon> <polygon class="st11" points="898.7,374 898.7,280.6 979.7,327.3 979.7,420.8 "></polygon> <ellipse class="st1" cx="979.7" cy="273.8" rx="40.4" ry="23.3"></ellipse> <path class="st7" d="M1020,272.3c0.7,6.4-3.2,13-11.7,17.9c-15.8,9.1-41.4,9.1-57.2,0c-7.4-4.3-11.3-9.9-11.8-15.5v4.8 c-0.5,6.3,3.4,12.7,11.8,17.5c15.8,9.1,41.4,9.1,57.2,0c7.9-4.6,11.8-10.5,11.8-16.5c0.1,0,0.1-8.2,0.1-8.2H1020z"></path> </g> <g> <polygon class="st1" points="1069.5,514.6 1028.8,538.2 987.9,514.6 1029.1,491.2 "></polygon> <polygon class="st11" points="1028.8,585.4 987.9,561.8 987.9,514.6 1028.8,538.2 "></polygon> <polygon class="st7" points="1028.6,585.4 1069.5,561.8 1069.5,514.6 1028.6,538.2 "></polygon> </g> <g> <ellipse class="st13" cx="275.5" cy="852.8" rx="43.3" ry="25"></ellipse> <ellipse class="st1" cx="286" cy="798.4" rx="43.3" ry="25"></ellipse> <path class="st7" d="M329.2,797.7c0.3,6.6-3.9,13.3-12.6,18.3c-16.9,9.8-44.3,9.8-61.2,0c-8.4-4.9-12.7-11.3-12.7-17.7v49.9 c0,6.4,4.2,12.8,12.7,17.7c16.9,9.8,44.3,9.8,61.2,0c8.4-4.9,12.7-11.3,12.7-17.7L329.2,797.7L329.2,797.7z"></path> <path class="st19" d="M242.8,797.7c0,0,0,0.7,0,0.7C242.7,798.2,242.8,798,242.8,797.7z"></path> </g> <g> <polygon class="st11" points="1509.2,440 1428.3,393.2 1428.3,299.8 1509.2,346.5 "></polygon> <polygon class="st7" points="1590.2,393.2 1509.2,440 1509.2,346.5 1590.2,299.8 "></polygon> <polygon class="st1" points="1590.2,299.8 1509.2,346.5 1428.3,299.8 1509.2,253 "></polygon> </g> <path class="st7" d="M1473.5,370.6c0,3-2.1,4.2-4.7,2.7c-2.6-1.5-4.7-5.2-4.7-8.2c0-3,2.1-4.2,4.7-2.7 C1471.4,364,1473.5,367.6,1473.5,370.6z M1457.9,346.8c-1.9-1.1-3.4-0.2-3.4,2c0,2.2,1.5,4.8,3.4,5.9c1.9,1.1,3.4,0.2,3.4-2 C1461.3,350.5,1459.8,347.9,1457.9,346.8z M1494,382.5c0,16.1-11.3,22.6-25.3,14.6c-14-8.1-25.3-27.6-25.3-43.8s11.3-22.6,25.3-14.6 C1482.7,346.8,1494,366.4,1494,382.5z M1488.3,379.2c0-12.5-8.8-27.7-19.6-33.9c-10.8-6.2-19.6-1.2-19.6,11.3 c0,12.5,8.8,27.7,19.6,33.9C1479.5,396.8,1488.3,391.7,1488.3,379.2z"></path> <g> <polygon class="st13" points="170.6,741 129.9,771 116.1,772.4 61.6,741 116.1,709.5 "></polygon> <polygon class="st7" points="129.9,771 75.4,739.5 75.4,676.6 129.9,708 "></polygon> <polygon class="st14" points="184.4,739.5 129.9,771 129.9,708 184.4,676.6 "></polygon> <polygon class="st1" points="184.4,676.6 129.9,708 75.4,676.6 129.9,645.1 "></polygon> </g> <path class="st12" d="M1043.3,366.3L997.1,393c-2,1.2-3.8,1-4.8-0.4c-1-1.4-1-3.8,0-6.4l23.1-59.6c1-2.6,2.8-4.8,4.8-6 c2-1.2,3.8-1,4.8,0.4l23.1,32.9c1,1.4,1,3.8,0,6.4C1047.1,362.9,1045.3,365.2,1043.3,366.3z M997.5,350.9c-3.2,1.8-5.7,0.3-5.7-3.3 c0-3.6,2.6-8.1,5.7-9.9c3.2-1.8,5.7-0.3,5.7,3.3C1003.2,344.6,1000.7,349.1,997.5,350.9z M997.5,341.9c-1.1,0.6-2,2.2-2,3.5 c0,1.3,0.9,1.8,2,1.2c1.1-0.6,2-2.2,2-3.5C999.5,341.8,998.6,341.3,997.5,341.9z M1042.9,324.7c-3.2,1.8-5.7,0.3-5.7-3.3 c0-3.6,2.6-8.1,5.7-9.9c3.2-1.8,5.7-0.3,5.7,3.3S1046,322.9,1042.9,324.7z M1042.9,315.7c-1.1,0.6-2,2.2-2,3.5c0,1.3,0.9,1.8,2,1.2 s2-2.2,2-3.5C1044.9,315.6,1044,315.1,1042.9,315.7z"></path> <polygon class="st2" points="979.7,420.8 851.8,401.1 898.7,374 "></polygon> <path class="st12" d="M1571.6,335.9c-9.5-5.5-24.9,3.4-34.4,19.9c-8.5,14.8-9.4,30.6-2.6,37.6l-12.7,22c-1.6,2.7-1.6,5.6,0,6.6 c1.6,0.9,4.2-0.5,5.7-3.2l12.7-22c9.5,2.3,22.8-6.3,31.3-21.1C1581.1,359.2,1581.1,341.4,1571.6,335.9z M1565.9,372.4 c-6.3,11-16.6,16.9-22.9,13.2c-6.3-3.7-6.3-15.5,0-26.5c6.3-11,16.6-16.9,22.9-13.2C1572.2,349.5,1572.2,361.4,1565.9,372.4z"></path> <path class="st11" d="M1541.5,384.8c0.3,0.2,0.6,0.3,0.9,0.4c-5.8-4-5.6-15.5,0.5-26.1c6-10.4,15.7-16.3,22-13.7 c-0.2-0.1-0.3-0.3-0.5-0.4c-6.3-3.7-16.6,2.3-22.9,13.2C1535.2,369.3,1535.2,381.1,1541.5,384.8z"></path> <path class="st11" d="M1571.6,335.9c-0.3-0.2-0.6-0.3-0.9-0.4c8.9,5.8,8.8,23.2-0.5,39.4c-8.5,14.8-21.8,23.4-31.3,21.1l-12.7,22 c-1.3,2.3-3.3,3.7-4.9,3.5c0.2,0.2,0.3,0.4,0.6,0.5c1.6,0.9,4.2-0.5,5.7-3.2l12.7-22c9.5,2.3,22.8-6.3,31.3-21.1 C1581.1,359.2,1581.1,341.4,1571.6,335.9z"></path> <path class="st3" d="M824.3,373.6c-0.8,1.4-1.9,2.5-3,3.1s-2.1,0.8-3,0.3c-6.7-3.9-15.5-3-24.9,2.4c-9.4,5.4-18.3,14.8-24.9,26.3 c-1.6,2.8-4.3,4.4-5.9,3.4c-1.6-0.9-1.6-4,0-6.8c8.2-14.3,19.2-25.9,30.8-32.6c11.6-6.7,22.6-7.8,30.8-3 C826,367.7,826,370.8,824.3,373.6z M793.5,384.1c-8.3,4.8-16.2,13.1-22.1,23.3c-1.6,2.8-1.6,5.9,0,6.8c1.6,0.9,4.3-0.6,5.9-3.4 c4.3-7.5,10.1-13.6,16.2-17.1c6.1-3.5,11.9-4.1,16.2-1.6c0.8,0.5,1.9,0.3,3-0.3c1.1-0.6,2.1-1.7,3-3.1c1.6-2.8,1.6-5.9,0-6.8 C809.7,378.5,801.8,379.3,793.5,384.1z M793.5,398.4c-5,2.9-9.8,7.9-13.4,14.1c-1.6,2.8-1.6,5.9,0,6.8c1.6,0.9,4.3-0.6,5.9-3.4 c2-3.5,4.6-6.2,7.4-7.9c2.8-1.6,5.5-1.9,7.4-0.7c0.8,0.5,1.9,0.3,3-0.3c1.1-0.6,2.1-1.7,3-3.1c1.6-2.8,1.6-5.9,0-6.8 C803.3,395,798.5,395.5,793.5,398.4z M793.5,415.3c-2.3,1.3-4.2,4.6-4.2,7.3s1.9,3.8,4.2,2.4c2.3-1.3,4.2-4.6,4.2-7.3 C797.7,415.1,795.8,414,793.5,415.3z"></path> <path class="st11" d="M806.9,403.9c-0.8,1.4-1.9,2.5-3,3.1c-1.1,0.6-2.1,0.8-3,0.3c-2-1.2-4.6-0.9-7.4,0.7c-2.8,1.6-5.5,4.4-7.4,7.9 c-1.6,2.8-4.3,4.4-5.9,3.4c-0.2-0.1-0.4-0.3-0.5-0.4c1.6,0.3,3.8-1.2,5.2-3.7c2-3.5,4.6-6.2,7.4-7.9c2.8-1.6,5.5-1.9,7.4-0.7 c0.8,0.5,1.9,0.3,3-0.3c1.1-0.6,2.1-1.7,3-3.1c1.5-2.6,1.6-5.5,0.3-6.6c0.3,0.1,0.6,0.3,0.9,0.4C808.5,398,808.5,401.1,806.9,403.9z M795.8,414.8c0.4,0.5,0.7,1.3,0.7,2.3c0,2.7-1.9,6-4.2,7.3c-0.8,0.5-1.6,0.6-2.3,0.5c0.8,0.9,2.1,1,3.5,0.1 c2.3-1.3,4.2-4.6,4.2-7.3C797.7,416,796.9,415,795.8,414.8z M815.6,381.9c-0.3-0.2-0.6-0.3-0.9-0.4c1.3,1.1,1.2,4-0.3,6.6 c-0.8,1.4-1.9,2.5-3,3.1s-2.1,0.8-3,0.3c-4.3-2.5-10.1-1.9-16.2,1.6c-6.1,3.5-11.9,9.6-16.2,17.1c-1.4,2.5-3.6,3.9-5.2,3.7 c0.2,0.2,0.3,0.3,0.5,0.4c1.6,0.9,4.3-0.6,5.9-3.4c4.3-7.5,10.1-13.6,16.2-17.1c6.1-3.5,11.9-4.1,16.2-1.6c0.8,0.5,1.9,0.3,3-0.3 c1.1-0.6,2.1-1.7,3-3.1C817.2,385.9,817.2,382.9,815.6,381.9z M824.3,366.8c-0.4-0.2-0.7-0.4-1.1-0.6c1.5,1,1.5,4-0.1,6.7 c-0.8,1.4-1.9,2.5-3,3.1c-1.1,0.6-2.1,0.8-3,0.3c-6.7-3.9-15.5-3-24.9,2.4c-9.4,5.4-18.3,14.8-24.9,26.3c-1.4,2.5-3.6,3.9-5.2,3.7 c0.2,0.2,0.3,0.3,0.5,0.4c1.6,0.9,4.3-0.6,5.9-3.4c6.7-11.6,15.5-20.9,24.9-26.3c9.4-5.4,18.3-6.3,24.9-2.4c0.8,0.5,1.9,0.3,3-0.3 s2.1-1.7,3-3.1C826,370.8,826,367.7,824.3,366.8z"></path> <g> <polygon class="st2" points="1278.2,414.6 1359.1,367.9 1278.2,321.2 1197.2,367.9 1258.3,411.4 "></polygon> <polygon class="st7" points="1258.3,411.4 1339.2,364.7 1339.2,271.3 1258.3,318 "></polygon> <polygon class="st1" points="1258.3,318 1339.2,271.3 1258.3,224.6 1177.4,271.3 "></polygon> <polygon class="st11" points="1177.3,364.7 1258.2,411.4 1258.2,318 1177.3,271.3 "></polygon> <polygon class="st11" points="1278.2,376.3 1319,352.6 1319,305.4 1278.2,329 "></polygon> <polygon class="st12" points="1278.2,329 1319,352.6 1278.2,376.3 "></polygon> <path class="st20" d="M1239.5,342.3l0-17.5l-8.2-4.7l0,7.9l-13.6-23.9l-29.3,17.7l5.7,3.3l0,30.8l11.2,6.5l0-18.5l10,5.8l0,18.5 l26.1,15l0-30.8l5.7,3.3L1239.5,342.3z"></path> <polygon class="st12" points="1196.3,354.7 1196.3,323.9 1190.3,320.6 1188.5,321.7 1194.1,325 1194.1,355.8 1205.4,362.3 1205.4,359.9 "></polygon> <polygon class="st12" points="1217.5,366.9 1217.5,348.4 1207.5,342.6 1205.4,343.7 1207.5,344.9 1215.4,349.5 1215.4,368 1241.4,383.1 1241.4,380.8 "></polygon> </g> <path class="st2" d="M844.1,320.1c-4.5-5.7-24.4-33.7-33.6-44.9c-4.8-5.8-19.8-22-35-37.4c-14.4-14.5-28.9-28.3-35.2-32.2 c-12.7-7.7-47.2-14.6-72.6-25c-0.8-0.3-1.5-0.6-2.2-0.9c-21.9-9.3-30.4-20.9-52.4-25c-33.4-6.2-40.5,0.4-133,8.2 c-11.5,1-24.4,2-38.7,3c-9.5,0.7-23.8-1.4-41.2-5.4c-3-6.2-7.1-10.8-12.6-12.5C233.8,100.8,70.5,0.8-0.2-44.8v234.6 c140.7,66.1,280.9,97.7,317.3,104.6c23.1,4.4,41.9-3.8,56.1-18.2c9.8,3.5,17,6.1,20.8,7.4c17.4,6.3,49.8,22.4,77.6,37.9 c8.2,4.6,16,9.1,22.9,13.3c30.1,18.3,69,21.2,90.1,33.3c21,12.1,54.2,30.4,64.7,42c9.1,10.1,17.3,30.2,28.2,25.6 c15.5-6.5,14.2-26.8,0.4-51.8c-1.4-2.5-2.8-4.9-4.3-7c-12.1-17.9-27-24.9-46.8-43.2c-2.4-2.2-4.8-4.5-7.2-7 c-6.6-6.8-10.8-14.5-13.3-22.5c2.2,1.6,4.4,3.3,6.8,5c14.2,10.2,31.3,21,38.9,19.4c4.9-1,13.2-4.1,22.3-8 c17-7.2,37.1-16.9,43.9-20.3c10.5-5.1,19.9-6.2,21.4-17.7c1.2-9.3-8.4-18.3-18-30c-1.8-2.2-3.6-4.4-5.5-6.6 c2.7,0.8,12.6,7.9,23.4,16.3c10.8,8.3,22.4,17.9,28.4,23.6c12,11.3,31.3,29.5,49.3,40.3c2.6,1.5,5,2.6,7.4,3.3 C838.6,333.9,847.9,325,844.1,320.1z M642,283.6c-13.9-6.1-28.6-11.9-37.6-15.3c1.6-10.2,4.7-19.5,7.6-26.5 c12.3,4.1,22.6,5.1,29.3,5.2c5.2,0.1,8.2-0.4,8.2-0.4c3.2,5.4,16.5,25.9,16.5,25.9l-12.6,5.8L642,283.6z"></path> <path class="st2" d="M1853.5,950.6l-15.7-16.1L1692,785l-136.2-139.6l-14.1-14.5l-25.7-6.5l-82.9-20.9l-64.8-16.4l-23.8-6l-4.7-1.2 c0,0-0.2,1.1-0.6,3.2c-1.8,8.7-6.9,34.3-11.2,60.9c-0.3,2-0.7,4.1-1,6.1c-0.7-0.3-1.4-0.6-2.1-1c-30.3-13-72.9-12.1-100.5,3.3 c-30.7,17.1-31.1,45.6-1,63.7c29.1,17.4,76.1,18.6,106.9,3.3c12.2,0.8,28.1-7.7,35.2-17.3c8.3-11.3,24.5-28.7,32-25.2 c7.6,3.6,5.2,28.9,6.8,40c1.6,11.1,19.5,38.3,26.6,46.3c7.1,8,21.8-2.3,21.8-2.3s12.5,10.3,22.1,15.8s25.5-3.5,28.2-9.9 c2.7-6.4,27.7-1.3,43.4,26.5c15.6,27.8,21.2,38.8,43.4,54.3c22.2,15.4,63.1,23.8,65.2,37.1c2.1,13.2-6.2,26.3,10.5,44.5 c8.9,9.8,110,111.9,184.7,181.8h76v-86.1L1853.5,950.6z M1306.2,701.3c-15.3,8.6-40.1,8.2-55.1-0.8c-15.1-9-14.9-23.3,0.5-31.8 c15.3-8.6,40.1-8.2,55.1,0.8C1321.7,678.5,1321.5,692.7,1306.2,701.3z"></path> <path class="st21" d="M1474.3,717.9c1.4,0.4,39-1.6,48.8-4.2c0,0,32.2,32.3,47.2,54.7c14.9,22.5,28.1,39.7,78.2,55.4 c28.6,9,136.4,135.8,136.4,135.8l89.2-42.4c0,0-224.6-204.8-268.5-243.3c-43.8-38.5-100.5-39.9-123.6-36.6 c-23.1,3.3-46.5,29.7-46.5,29.7L1474.3,717.9z"></path> <path class="st21" d="M1434.8,716.2c0,0,31.7,14.2,39.7,19.1c14.9,9.2,33.6-19.1,20.2-30.2c-13.4-11.1-49.8-39.7-49.8-39.7 L1434.8,716.2z"></path> <path class="st22" d="M1926,868.9v63.7l-72.5,17.9l-57.6,14.2c0,0-2.6-2.5-7.1-7c-9.4-9.4-27.5-27.3-49-49.2l-0.5-0.5 c-17-17.4-36.3-37.2-55.2-57c-0.1-0.1-0.2-0.2-0.3-0.3c-4.2-4.4-8.3-8.8-12.4-13.1c-25.5-27.2-49.3-53.6-64.8-73.2 c-4-5.1-16-10.2-20.2-16.1c-23.3-32.6-46.4-75.4-64-110.6c-2.3-4.6-4.4-9-6.5-13.3c-14.5-29.7-23.7-51.3-23.7-51.3 s-33.3,16.6-59.2,30.4c-14,7.4-25.8,14-28.9,16.6c-8.8,7.5-21.2,22.4-42.5,41.6c-27.5,24.8-50.2,9.1-37.7-11.2 c0.3-0.5,0.6-0.9,0.8-1.4c1.1-1.8,2.1-3.5,3.1-5.2c13.5-22.9,19.9-38.4,28.6-47.5c1.4-1.4,5.8-4.9,11.8-9.3 c20-14.7,57.6-40.3,59.2-41.4c-1.8,0.8-46.4,21.5-83,35.3c-1.8,0.7-3.6,1.4-5.4,2c-9.5,3.5-18.2,6.3-25.2,8.2 c-41.1,10.7-44.4-29.9-18.4-38.6c53-17.7,98.4-47,118.3-52c14.9-3.7,126.8-25.8,158.1-12.7c22,9.2,55.1,121.9,170.8,234.5 c3.7,3.6,7.5,7.2,11.6,11C1800.8,776.3,1873.2,830.7,1926,868.9z"></path> <path class="st21" d="M1356.4,596.4c-2.2,2.3-4.2,5-6.2,8.1c5.2,0.3,10.3,1.9,14.1,5.7c7.4,7.4,9.5,27.2,4.2,45.2 c17.2-16.2,27.9-28.7,35.7-35.3c3.1-2.6,15.1-9.3,29.2-16.8c3.2-2,6.6-4,10-6c13.8-11.8,23.4-19.9,23.4-19.9l-77.1-5.5 C1374.1,582.7,1359.1,593.5,1356.4,596.4z"></path> <path class="st21" d="M657.2,175.8l18.7,25.7c0,0-3.5,10.7-6.8,19.3c-3.3,8.6,12.7,20.5,33.2,23.3c20.5,2.8,37.4-12.8,32.1-26.5 c-5.3-13.6-36.6-31.8-42.8-36.5C685.4,176.6,657.2,175.8,657.2,175.8z"></path> <path class="st23" d="M752.2,183.5c0,0,8.4,25.3,14.9,46.3c4.5,14.4,9.9,26.4,5.3,34.6c-5.7,10-14.9,7.4-26.5,8.2 c-11.6,0.8-57.9,3.7-72,1c-14-2.7-42.3-56.5-42.3-56.5l14.6-23.7c0,0,18.9,17.3,35.7,34.8l26.5-1.1c0,0-4.5-24.1-5.4-30.3 c0,0-24.5-5.7-46.7-33L752.2,183.5z"></path> <path class="st24" d="M646.2,193.3c0,0,18.9,17.3,35.7,34.8l2.5-0.1l-4.3,20.3c0,0-17.9-25.4-42-42L646.2,193.3z"></path> <path class="st24" d="M760.2,250.3c-11-13-24.3-52.8-62.1-77.9l5.1,1l54.1,25.4c2.9,8.9,6.6,20.5,9.9,31c3.8,12.1,8.2,22.6,6.7,30.4 C769.9,258.9,765,256.1,760.2,250.3z"></path> <path class="st23" d="M652.7,80.2c0,0,50.6,5,60,12.8c9.4,7.8,20.5,36.6,31.8,65L652.7,80.2z"></path> <path class="st22" d="M827.7,334.1c-1.1-1.4-2.2-3-3.2-4.5c-11.2-16.4-20.8-37.8-27.1-51.5c-4.2-9.2-14-27.1-21.9-40.3 c-5-8.3-9.3-14.8-10.9-16.2c-4.3-3.5-47.4-35.3-52.8-39.2c-5.3-3.9-24.7-20.6-40.1-5.8c-1.3,1.2-2.6,2.6-4,4 c-13.3,14.2-30.4,39.4-26.3,66.4c0.6,4.1,1.7,8.3,3.4,12.5c2.9,7.2,5.8,13.3,8.7,18.9c8.5,16.4,16.4,27.3,20.7,42.3 c1.2,4.3,2.2,8.8,2.8,14c1.9,16.8,1.1,32.4-3.4,42.3c-3.1,6.8-7.9,11-14.8,11.1c-11.8,0-14.9-20.6-20.9-32.8 c-2.2-4.4-6.2-12.3-11.1-21.4c-4.1-7.7-8.9-16.3-13.7-24.5c-5.6-9.3-11.2-18.2-16.3-24.7c-14.9-19.1-49.8-36.6-70.7-65 c-4.8-6.5-10.3-13.6-16.1-20.9c-9.6-12-20-24.5-29.9-35.6c-10.6-12-20.4-22.4-27.5-28.9c-2.9-2.7-8.6-7.8-16.4-14.8 c-39.4-35-134.1-116-221.2-159.7l10.6-39.1l16.7-61.9h77.2C373.9-88.3,453.1-14,504.9,22.5c14.6,10.3,27,17.6,36,20.6 C664.5,84,671.9,77.2,704,97.9c18.9,12.1,22.3,26.1,39,43c19.6,19.8,50.3,40.1,59.4,52.4c9.1,12.3,34.2,77,38.5,91 c4.3,13.9,12.1,47.3,14,54.3C857,345.7,840.4,351,827.7,334.1z"></path> <path class="st23" d="M225.4-79.5l-10.5,39.1C319.2,12,434.6,117.9,452.5,134c0,0-9.3-40.9-44-76.3 C368.6,17.2,284.4-38.6,225.4-79.5z"></path> <path class="st23" d="M630.3,218.4c11.2-34.5,47.1-45.9,47.1-45.9c-1.9,0.9-3.9,2.3-5.7,4.1c-15.4,14.8-40.8,48.6-26.9,82.9 c12.1,29.7,24.9,42.4,30.3,64.3C659.5,288.6,621.7,244.5,630.3,218.4z"></path> <path class="st25" d="M845.7,301.4c3.8,14.9,8,32.4,9.4,37.2c0.7,2.3-0.8,4.5-3.4,5.7C839.6,325.9,842.5,310,845.7,301.4z"></path> <path class="st25" d="M665.4,369.4c-4.8-17.9-15.2-28.1-24.1-22.3c-8.9,5.9,4.2,37.6,6.8,40.4C650.5,390.3,669.5,384.6,665.4,369.4z "></path> <g> <path class="st26" d="M791.3,199.1l-1.6-1.8c6.3-5.8,12.6-5.3,12.9-5.2l-0.2,2.4l0.1-1.2l-0.1,1.2 C802.1,194.5,796.8,194.1,791.3,199.1z"></path> </g> <g> <path class="st26" d="M802.6,276.2l-2.2-0.9c1.4-3.5,5.2-5.7,6.9-6.7l1.4,1.9l-0.2,0.1C807,271.5,803.6,273.5,802.6,276.2z"></path> </g> <g> <path class="st26" d="M615.2,311.3l-2.3-0.5c3.6-16.5,22.2-15.6,22.4-15.6l-0.1,2.4C634.5,297.6,618.4,296.8,615.2,311.3z"></path> </g> <path class="st4" d="M436,119.3c-18.6,7.9-39.1,8.3-58.8-4.5c-40-26-224.9-154.3-328-256.2h308.9C398.5-93.2,448.7-37.5,497.9,6.2 c4.3,3.8,6.5,9.5,7,16.3C506.7,51.8,475.6,102.5,436,119.3z"></path> <g> <path class="st24" d="M721.5,242.2c-1.5-8.5-13.4-14-13.5-14l1-2.2c0.5,0.2,13.2,6.1,14.9,15.8L721.5,242.2z"></path> </g> <path class="st23" d="M1388.5,540.2c0,0,50.6-13.6,71.8-15.5c33.6-3.1,57.3,12.1,31.8,33.7C1466.7,580,1388.5,540.2,1388.5,540.2z"></path> <path class="st23" d="M1501.9,584.2c0,0-67.7,28.4-76.5,39c-8.8,10.7-16.8,48.1-16.5,54.1c0.4,8.5,10,16,23.8,44.3 c5,10.4,28.4,4.2,25.6-15.2c-2.7-18.7-5.5-29.7-5.5-29.7l12.1-6.8l81.5-24.2L1501.9,584.2z"></path> <path class="st23" d="M1299.6,592.9c4.1,0.2,8.8-0.3,14.2-1.7c16.7-4.3,42.9-14.7,65.9-24.4l-66.2-20.8c-2.7,1-5.4,2.1-8.1,3.1 C1309.8,559,1315,578.2,1299.6,592.9z"></path> <g> <path class="st21" d="M1477.8,550.5c-4.3-19.5,7.9-43.5,8.4-44.5l2.1,1.1c-0.1,0.2-12.3,24.2-8.2,42.9L1477.8,550.5z"></path> </g> <g> <path class="st21" d="M1497.8,552.6l-2.4-0.3c2.8-21.4,24-42,25-42.9l1.6,1.7C1521.9,511.4,1500.5,532.1,1497.8,552.6z"></path> </g> <g> <path class="st21" d="M1426.6,541.9l-2.4-0.1c0.9-14.1-6.9-23-7-23.1l1.8-1.6C1419.3,517.5,1427.5,526.8,1426.6,541.9z"></path> </g> <g> <path class="st21" d="M1466.7,670.9l-2.3-0.4c3.6-19.4-5.9-29.5-6-29.6l1.7-1.7C1460.5,639.7,1470.5,650.3,1466.7,670.9z"></path> </g> <path class="st22" d="M1418.8,696.9c0,0,7.3-10.1,13.6-5.4c6.3,4.7,10.3,19.8,10.3,19.8l-11.2,8.2L1418.8,696.9z"></path> <path class="st1" d="M1224.2,530.7c-30.7,17.1-31.1,45.6-0.9,63.7c30.2,18,79.6,18.8,110.3,1.6s31.1-45.6,0.9-63.7 C1304.3,514.3,1254.9,513.6,1224.2,530.7z M1306.2,579.7c-15.3,8.6-40.1,8.2-55.1-0.8c-15.1-9-14.9-23.3,0.5-31.8 c15.3-8.6,40.1-8.2,55.1,0.8C1321.7,556.9,1321.5,571.1,1306.2,579.7z"></path> <linearGradient id="SVGID_3_" gradientUnits="userSpaceOnUse" x1="1211.0244" y1="559.1657" x2="1358.9763" y2="561.1832"> <stop offset="5.376340e-03" style="stop-color:#636EB3"></stop> <stop offset="2.995734e-02" style="stop-color:#5F6BAE"></stop> <stop offset="0.235" style="stop-color:#435187"></stop> <stop offset="0.4379" style="stop-color:#2C3C68"></stop> <stop offset="0.6356" style="stop-color:#1C2E53"></stop> <stop offset="0.8258" style="stop-color:#122545"></stop> <stop offset="1" style="stop-color:#0F2241"></stop> </linearGradient> <path class="st27" d="M1306.7,547.9c-15.1-9-39.8-9.4-55.1-0.8c-15.3,8.6-15.5,22.8-0.5,31.8c15.3-8.6,40.1-8.2,55.1,0.8 C1321.5,571.1,1321.7,556.9,1306.7,547.9z"></path> <linearGradient id="SVGID_4_" gradientUnits="userSpaceOnUse" x1="1142.4626" y1="599.902" x2="1438.5695" y2="603.9398"> <stop offset="5.376340e-03" style="stop-color:#636EB3"></stop> <stop offset="2.995734e-02" style="stop-color:#5F6BAE"></stop> <stop offset="0.235" style="stop-color:#435187"></stop> <stop offset="0.4379" style="stop-color:#2C3C68"></stop> <stop offset="0.6356" style="stop-color:#1C2E53"></stop> <stop offset="0.8258" style="stop-color:#122545"></stop> <stop offset="1" style="stop-color:#0F2241"></stop> </linearGradient> <path class="st28" d="M1333.5,596c-30.7,17.1-80.1,16.4-110.3-1.6c-15.1-9-22.5-20.6-22.4-32.2l-0.5,31.8 c-0.2,11.5,7.3,23.2,22.4,32.2c30.2,18,79.6,18.8,110.3,1.6c15.4-8.6,23.1-20,23.3-31.5l0.5-31.8 C1356.7,576,1348.9,587.4,1333.5,596z"></path> <path class="st22" d="M1610,589.3c0,0-24.1-36.6-117.3-39c-74.1-2-133.8-11.8-170.7-25.4c-18.8-6.9-34,23.5-12.7,42.3 c21.3,18.8,42.2,22.2,68.2,26.8c30.6,5.4,72.2,17.7,86.9,35.3s70.4,77.8,92.2,97c21.8,19.2,86.7,45.6,122.9,52.4L1610,589.3z"></path> <path class="st23" d="M1323.3,568.3c-11.2-5.3-18.9-13-24.1-20.2c0.4,6.5,3.4,13.3,10,19.1c21.3,18.8,42.2,22.2,68.2,26.8 c30.6,5.4,72.2,17.7,86.9,35.3c14.7,17.6,49.7,89.7,141.7,134.4c-55.5-48.1-113.4-150.2-130.3-164.9 C1454.5,580.4,1350.9,581.4,1323.3,568.3z"></path> <path class="st25" d="M1298.5,543.9c5.4,4.7,24.5,14,36.3,11.8c11.8-2.2,18.2-21.1,6.9-25.1c-13.7-4.7-25.4-7.7-33-10.1 C1298.7,517.5,1293,539,1298.5,543.9z"></path> <g> <path class="st21" d="M1375.3,568.3c-1.4-10.9,6.5-25.1,6.9-25.7l2.1,1.2c-0.1,0.1-7.9,14.1-6.6,24.3L1375.3,568.3z"></path> </g> <path class="st4" d="M1926,1111h-13.2c-76.6-68.4-209.5-192.3-233.4-232.6c-7.1-12-9.4-25.4-8.2-39c0-0.6,0.1-1.2,0.2-1.8 c2-17.9,9.8-36.3,20.5-52.6c4.6-7,9.7-13.6,15.2-19.6c15.2-16.8,32.6-28.9,47-32c7.8-1.6,14.7-0.6,19.8,3.8 c30.7,26,94.7,68.2,152,104.4V1111z"></path> </svg> 